<?xml version="1.0" encoding="UTF-8" standalone="no"?>
<!-- Created with Inkscape (http://www.inkscape.org/) -->

<svg
   xmlns:dc="http://purl.org/dc/elements/1.1/"
   xmlns:cc="http://creativecommons.org/ns#"
   xmlns:rdf="http://www.w3.org/1999/02/22-rdf-syntax-ns#"
   xmlns:svg="http://www.w3.org/2000/svg"
   xmlns="http://www.w3.org/2000/svg"
   xmlns:sodipodi="http://sodipodi.sourceforge.net/DTD/sodipodi-0.dtd"
   xmlns:inkscape="http://www.inkscape.org/namespaces/inkscape"
   width="210mm"
   height="148mm"
   viewBox="0 0 210 148"
   version="1.1"
   id="SVGRoot"
   inkscape:version="0.92.3 (unknown)"
   sodipodi:docname="logo.svg">
  <sodipodi:namedview
     id="base"
     pagecolor="#ffffff"
     bordercolor="#666666"
     borderopacity="1.0"
     inkscape:pageopacity="0.0"
     inkscape:pageshadow="2"
     inkscape:zoom="0.7"
     inkscape:cx="234.31031"
     inkscape:cy="152.20487"
     inkscape:document-units="mm"
     inkscape:current-layer="g4279"
     showgrid="false"
     inkscape:window-width="1533"
     inkscape:window-height="845"
     inkscape:window-x="67"
     inkscape:window-y="27"
     inkscape:window-maximized="1">
    <sodipodi:guide
       inkscape:locked="false"
       id="guide1382"
       orientation="0,1122.5197"
       position="0,0" />
    <sodipodi:guide
       inkscape:locked="false"
       id="guide1384"
       orientation="-1587.4016,0"
       position="297,0" />
    <sodipodi:guide
       inkscape:locked="false"
       id="guide1386"
       orientation="0,-1122.5197"
       position="297,420" />
    <sodipodi:guide
       inkscape:locked="false"
       id="guide1388"
       orientation="1587.4016,0"
       position="0,420" />
  </sodipodi:namedview>
  <defs
     id="defs823" />
  <metadata
     id="metadata826">
    <rdf:RDF>
      <cc:Work
         rdf:about="">
        <dc:format>image/svg+xml</dc:format>
        <dc:type
           rdf:resource="http://purl.org/dc/dcmitype/StillImage" />
        <dc:title></dc:title>
      </cc:Work>
    </rdf:RDF>
  </metadata>
  <g
     inkscape:label="Layer 1"
     inkscape:groupmode="layer"
     id="layer1">
    <g
       transform="matrix(2.2590455,0,0,2.2590455,9.5752081,9.4624882)"
       id="g4279"
       style="display:inline;fill:#4a244a;fill-opacity:1;stroke-width:0.4426648">
      <path
         inkscape:connector-curvature="0"
         id="path3181"
         d="m 42.160184,44.961485 c -0.19248,-0.03189 -0.514024,-0.120236 -0.741484,-0.203726 -0.489047,-0.179504 -0.870119,-0.43194 -1.338924,-0.886951 -0.241438,-0.234336 -0.36623,-0.382973 -0.526158,-0.626691 -0.628489,-0.957778 -0.946657,-2.136477 -0.904208,-3.3498 0.02288,-0.65425 0.151778,-1.333789 0.383361,-2.021181 0.07382,-0.219112 0.161526,-0.423369 0.181791,-0.423369 0.02798,0 0.02894,0.02886 0.0061,0.181481 -0.08567,0.571087 -0.117196,1.070042 -0.106291,1.682202 0.0092,0.51444 0.03028,0.717207 0.116406,1.117803 0.300773,1.398907 1.080575,2.585834 2.019314,3.073572 0.575562,0.299044 1.175124,0.391821 1.817571,0.281247 0.710483,-0.122281 1.257493,-0.379846 1.690384,-0.795932 0.375703,-0.361118 0.574756,-0.712842 0.678351,-1.198654 0.06998,-0.328109 0.0652,-0.8853 -0.01088,-1.264378 -0.111057,-0.553592 -0.456119,-1.283223 -0.928135,-1.962526 -0.415176,-0.597499 -0.78197,-1.043804 -1.896342,-2.307409 -1.697823,-1.92519 -2.270351,-2.675849 -2.737151,-3.588767 l -0.09842,-0.192467 -0.176695,-0.09243 c -0.312547,-0.1635 -0.703857,-0.446569 -0.703857,-0.509164 0,-0.01353 0.0031,-0.02458 0.0073,-0.02458 0.004,0 0.111148,0.05325 0.238138,0.118309 0.355106,0.181964 0.480535,0.220358 0.480535,0.147089 0,-0.01361 -0.03457,-0.16072 -0.07683,-0.326928 -0.10282,-0.4044 -0.120074,-0.569854 -0.107986,-1.035669 0.01051,-0.404599 0.03073,-0.537293 0.126639,-0.829964 0.281363,-0.858754 1.138549,-1.606342 2.12915,-1.85692 0.365846,-0.09255 0.840744,-0.114784 1.141138,-0.05344 0.337939,0.06899 0.523095,0.16664 0.846442,0.44633 0.06955,0.06013 0.135655,0.106313 0.146914,0.102582 0.046,-0.01525 0.03188,-0.564072 -0.04076,-1.585466 -0.05368,-0.754673 -0.120611,-1.423413 -0.144882,-1.447686 -0.02504,-0.02504 -0.06802,0.03214 -0.180834,0.240462 -0.176454,0.325876 -0.324787,0.527628 -0.563647,0.766614 -0.384531,0.384745 -0.69441,0.541452 -1.27039,0.642455 -0.345661,0.06061 -0.604741,0.06017 -0.904807,-0.0017 -0.269961,-0.05552 -0.445108,-0.121125 -0.640525,-0.239957 -0.446001,-0.271213 -0.770829,-0.687311 -0.985433,-1.262315 -0.144507,-0.3872 -0.229747,-0.753361 -0.281028,-1.207206 -0.04268,-0.377623 -0.04263,-1.454153 7.2e-5,-1.880979 0.04821,-0.481996 0.138343,-1.025999 0.244824,-1.47778 0.117741,-0.499547 0.359665,-1.086446 0.646945,-1.569442 0.82909,-1.393941 1.832192,-1.786093 2.624068,-1.025858 0.193897,0.186151 0.305826,0.339741 0.247585,0.339741 -0.009,0 -0.09253,-0.05187 -0.185804,-0.115247 -0.472861,-0.321302 -0.835705,-0.365609 -1.178726,-0.143903 -0.282503,0.182588 -0.523846,0.494697 -0.755072,0.976468 -0.324381,0.675868 -0.526986,1.4779 -0.615624,2.437044 -0.03006,0.325241 -0.03011,1.466666 -1.96e-4,1.754324 0.118855,1.138738 0.398792,1.841383 0.835603,2.097373 0.233724,0.136967 0.673009,0.125446 0.995493,-0.02611 0.504652,-0.237175 0.892745,-1.141932 1.05898,-2.468791 0.122901,-0.980996 0.131783,-1.833894 0.03347,-3.21482 -0.0186,-0.26142 -0.03889,-0.631175 -0.04505,-0.82168 l -0.01121,-0.346372 0.09067,-0.176515 c 0.157188,-0.306018 0.254821,-0.358318 0.666429,-0.356991 0.279256,0.001 0.330915,0.01304 0.437486,0.102706 0.09768,0.08219 0.203851,0.307971 0.27014,0.574515 0.203365,0.817722 0.511187,3.347257 0.639963,5.258914 0.07316,1.086072 0.0854,1.481213 0.0862,2.78272 9.2e-4,1.515705 -0.01945,1.934941 -0.12872,2.647827 -0.139595,0.910785 -0.393207,1.423439 -0.983134,1.987308 -0.293408,0.280448 -0.578525,0.467792 -0.978748,0.643108 -0.356582,0.156202 -0.674478,0.238575 -1.140718,0.295588 -0.295773,0.03616 -0.319752,0.04157 -0.319752,0.07196 0,0.106303 0.597583,0.785197 1.883953,2.140289 1.305644,1.375397 1.713175,1.838488 2.266642,2.575657 0.803763,1.07055 1.239304,2.046581 1.371329,3.073112 0.05147,0.400168 0.02901,0.987147 -0.05338,1.394795 -0.0419,0.207309 -0.207348,0.683576 -0.309228,0.890126 -0.286798,0.581443 -0.824124,1.153758 -1.411278,1.503185 -0.403248,0.239982 -1.014661,0.464665 -1.509776,0.554817 -0.213333,0.03884 -1.214559,0.05149 -1.417285,0.0179 z M 41.340495,32.298456 c 0.944517,-0.168622 1.647624,-0.596038 2.102865,-1.278329 0.292447,-0.438298 0.374848,-0.776721 0.410503,-1.685947 l 0.01013,-0.260019 -0.05295,-0.07309 c -0.1625,-0.224322 -0.441994,-0.424323 -0.708953,-0.507313 -0.113156,-0.03518 -0.164772,-0.04028 -0.406173,-0.04011 -0.246521,1.94e-4 -0.296745,0.0053 -0.462607,0.04851 -0.878773,0.228219 -1.610805,0.883129 -1.805149,1.614968 -0.03942,0.148458 -0.04486,0.203279 -0.04585,0.462259 -0.0016,0.399705 0.0558,0.692145 0.208318,1.062965 0.0749,0.182075 0.291877,0.57626 0.35357,0.642303 0.05708,0.06112 0.119122,0.06328 0.396216,0.01382 z m -11.016118,2.280805 c -0.125955,-0.02014 -0.28819,-0.10435 -0.387575,-0.201141 -0.407446,-0.396865 -0.782401,-1.523153 -1.776759,-5.337009 -0.985074,-3.778249 -1.385081,-5.199941 -1.874698,-6.662973 -0.311971,-0.932202 -0.536156,-1.499 -0.806684,-2.03951 -0.206734,-0.413047 -0.375697,-0.678159 -0.54743,-0.858947 -0.173047,-0.182178 -0.292228,-0.235779 -0.573542,-0.257955 -0.448255,-0.03533 -0.826058,0.248779 -1.138789,0.856391 -0.261948,0.508937 -0.430836,1.061583 -0.556575,1.821233 -0.03494,0.211047 -0.07122,0.393449 -0.08065,0.405333 -0.0246,0.03103 -0.110812,0.02703 -0.123388,-0.0057 -0.04533,-0.118083 0.06901,-1.002723 0.197465,-1.52796 0.185792,-0.759692 0.424697,-1.242432 0.785651,-1.587505 0.290372,-0.277598 0.569093,-0.378949 0.992781,-0.36101 0.23182,0.0097 0.36139,0.03742 0.513516,0.109376 0.223437,0.105702 0.466134,0.354635 0.722773,0.741341 0.731915,1.102858 1.521495,3.089445 2.686021,6.758036 0.123721,0.389755 0.412727,1.315311 0.642236,2.056794 0.847271,2.737313 1.147285,3.667527 1.200549,3.722392 0.01932,0.0199 0.02591,0.01808 0.04182,-0.01167 0.04048,-0.07564 0.158541,-1.398068 0.304274,-3.408258 0.26627,-3.672906 0.445823,-5.30069 0.86485,-7.840533 0.238818,-1.44756 0.451035,-2.487208 0.759843,-3.72245 0.193512,-0.774051 0.321015,-1.216739 0.535155,-1.858027 0.533094,-1.596465 1.029102,-2.566312 1.609122,-3.146334 0.267773,-0.267773 0.483985,-0.398786 0.748324,-0.453443 0.148839,-0.03076 0.215761,-0.02146 0.251176,0.03496 0.0309,0.04921 -0.005,0.08442 -0.172047,0.168519 -0.623769,0.314081 -1.066374,1.347461 -1.484279,3.465438 -0.176226,0.893134 -0.271746,1.516476 -0.237612,1.550611 0.02703,0.02703 0.157098,-0.0034 0.495815,-0.116321 0.662418,-0.220654 1.264591,-0.526179 1.751448,-0.888628 0.262595,-0.195496 0.653821,-0.580498 0.82671,-0.813562 0.449868,-0.606439 0.728678,-1.335135 0.859709,-2.246919 0.09735,-0.677416 0.125645,-1.468001 0.09694,-2.708491 -0.02377,-1.0270885 -0.03262,-1.2000663 -0.06193,-1.2096978 -0.01013,-0.00341 -0.07893,0.046596 -0.152822,0.1109901 -0.483385,0.4212904 -0.774492,0.6075066 -1.424823,0.9114347 -0.381189,0.178145 -0.567428,0.256265 -1.238433,0.519465 -0.934374,0.366508 -1.257798,0.507811 -1.696655,0.741267 -1.24498,0.662278 -1.835323,1.442334 -2.061459,2.723927 -0.0715,0.405219 -0.09383,0.707695 -0.09504,1.287655 -0.001,0.576621 0.01296,0.769141 0.07957,1.080249 0.09057,0.423061 0.298911,0.733952 0.558778,0.83379 0.07426,0.02853 0.09185,0.07038 0.03311,0.07877 -0.01982,0.0027 -0.08205,-0.01195 -0.138272,-0.03287 -0.07848,-0.02922 -0.130818,-0.06658 -0.225154,-0.160706 -0.195971,-0.195523 -0.332087,-0.508309 -0.421006,-0.967421 -0.06379,-0.329461 -0.07833,-0.524127 -0.07752,-1.039163 0.0022,-1.310712 0.177456,-2.08637 0.625342,-2.765438 0.31856,-0.482978 0.819123,-0.94321 1.415972,-1.301883 0.336494,-0.202214 0.979094,-0.515104 1.587536,-0.772994 1.248706,-0.5292609 1.686125,-0.7424328 2.117287,-1.0318205 0.470391,-0.3157188 0.829875,-0.6997249 1.022265,-1.0919948 0.0536,-0.1092754 0.169673,-0.4323429 0.319828,-0.8901252 0.248731,-0.7583073 0.293069,-0.8733967 0.318778,-0.8274553 0.0083,0.014805 0.02301,0.3292354 0.03275,0.6987474 0.03115,1.183281 0.05225,1.7557081 0.07772,2.1081382 0.01366,0.1891748 0.03298,0.4592694 0.04287,0.6002131 0.03555,0.5060251 0.05427,1.5899981 0.03598,2.0857171 -0.06332,1.716647 -0.521292,2.947626 -1.433996,3.854418 -0.712139,0.70753 -1.635924,1.141169 -2.942112,1.381082 -0.29496,0.05418 -0.366699,0.07331 -0.384825,0.102644 -0.01329,0.0215 -0.14796,0.971936 -0.215891,1.523602 -0.166123,1.349028 -0.200871,1.659757 -0.55474,4.960504 -0.14987,1.397909 -0.383442,3.345779 -0.553378,4.614822 -0.03755,0.280432 -0.111103,0.836543 -0.163438,1.235802 -0.366762,2.797704 -0.523963,3.766318 -0.701266,4.320997 -0.06386,0.199761 -0.100845,0.278453 -0.185783,0.395023 -0.157059,0.215607 -0.4146,0.326431 -0.665384,0.286328 z m 18.014621,-1.925259 c -0.395016,-0.07535 -0.894118,-0.320823 -1.182504,-0.581581 -0.620309,-0.560887 -1.062605,-1.441214 -1.214724,-2.41773 -0.04787,-0.30724 -0.04259,-1.065367 0.01003,-1.460495 0.13316,-0.997759 0.37285,-1.626052 0.857182,-2.246915 0.305102,-0.391113 0.442934,-0.518586 0.700492,-0.64786 0.291593,-0.146358 0.544272,-0.207699 0.855557,-0.207699 0.336336,0 0.630857,0.07497 0.96024,0.244395 0.369273,0.189951 0.685108,0.466201 0.977714,0.855165 0.432373,0.574761 0.705832,1.250004 0.877628,2.167111 0.0935,0.499139 0.09937,0.585322 0.09217,1.353042 -0.0061,0.655183 -0.0096,0.725584 -0.0442,0.876592 -0.09452,0.413385 -0.253367,0.810591 -0.432011,1.080249 -0.100648,0.151922 -0.335721,0.397572 -0.495016,0.517281 -0.272799,0.205009 -0.642808,0.376807 -0.951337,0.44172 -0.230271,0.04843 -0.816283,0.06394 -1.011323,0.02674 z m 0.894187,-0.999255 c 0.405386,-0.144781 0.675551,-0.384598 0.860952,-0.764249 0.162036,-0.331812 0.214896,-0.61705 0.227894,-1.229761 0.01024,-0.484341 -0.0085,-0.794092 -0.07328,-1.207668 -0.107337,-0.685519 -0.300742,-1.267438 -0.559743,-1.684126 -0.595837,-0.958591 -1.466846,-1.274347 -2.179435,-0.790083 -0.269315,0.183023 -0.620296,0.637587 -0.720122,0.932639 -0.05758,0.170208 -0.119769,0.491276 -0.154703,0.798745 -0.0364,0.320358 -0.0418,1.086281 -0.0096,1.365436 0.064,0.555455 0.234671,1.072511 0.513838,1.556737 0.261007,0.452725 0.621116,0.804153 1.000094,0.975991 0.200476,0.0909 0.278076,0.102571 0.640901,0.09646 0.301324,-0.0051 0.338689,-0.0092 0.453237,-0.05011 z m 4.474608,-1.637587 c -0.45673,-0.07245 -0.93127,-0.342754 -1.258379,-0.716787 -0.391659,-0.447847 -0.671969,-1.06602 -0.817396,-1.80261 -0.08934,-0.452466 -0.09828,-0.553545 -0.107595,-1.214497 -0.0097,-0.695603 0.0041,-0.950983 0.07344,-1.348911 0.257855,-1.479794 0.900424,-2.486757 1.753699,-2.748192 0.346412,-0.106141 0.800996,-0.0041 1.218519,0.27344 0.298984,0.198762 0.665436,0.502268 0.665436,0.551135 0,0.0133 -0.0049,0.0242 -0.01097,0.0242 -0.0061,0 -0.14796,-0.06515 -0.315432,-0.144782 -0.529242,-0.25165 -0.766891,-0.326455 -1.039059,-0.32707 -0.132484,-3.89e-4 -0.188288,0.0081 -0.28892,0.04368 -0.535414,0.189107 -0.934163,0.934261 -1.112399,2.078791 -0.03169,0.203521 -0.039,0.339244 -0.04594,0.85401 -0.0091,0.674872 0.0068,0.965541 0.0743,1.365798 0.209227,1.239068 0.663762,1.96967 1.335736,2.147003 0.156033,0.04118 0.486741,0.0494 0.65081,0.01618 0.831592,-0.168379 1.434152,-0.882648 1.959883,-2.323225 0.182229,-0.499344 0.287219,-0.864339 0.587505,-2.042478 0.104189,-0.408766 0.194885,-0.757152 0.201551,-0.774188 0.106689,-0.272711 0.05394,1.443999 -0.07125,2.319317 -0.175937,1.230014 -0.532584,2.180268 -1.061008,2.826945 -0.13911,0.170243 -0.418605,0.43277 -0.578215,0.543108 -0.259743,0.17956 -0.658192,0.339582 -0.952045,0.382356 -0.171309,0.02493 -0.74101,0.03603 -0.862285,0.01679 z M 35.315731,29.87218 c -0.997384,-0.192323 -1.679955,-1.215818 -1.885579,-2.827366 -0.02004,-0.157175 -0.02965,-0.420943 -0.03519,-0.967905 -0.0041,-0.413518 -0.01133,-0.769106 -0.01585,-0.790195 -0.0079,-0.0366 -0.01745,-0.03856 -0.209697,-0.04322 -0.127773,-0.003 -0.203807,-0.01185 -0.207828,-0.02398 -0.0035,-0.01075 0.05635,-0.03978 0.136863,-0.06632 0.07876,-0.02597 0.180117,-0.06303 0.225235,-0.08236 0.09756,-0.04181 0.09733,-0.04121 0.160424,-0.428492 0.225792,-1.385881 0.919201,-2.853431 1.741247,-3.685211 0.532463,-0.538766 1.097077,-0.809287 1.687084,-0.808324 0.245426,3.89e-4 0.390096,0.03383 0.602322,0.139212 0.374744,0.186069 0.626011,0.508735 0.788567,1.012647 0.09081,0.281519 0.101651,0.382069 0.09341,0.867044 -0.0072,0.42513 -0.0074,0.426961 -0.06119,0.578484 -0.122851,0.346176 -0.294928,0.626339 -0.546104,0.889105 -0.409216,0.428102 -0.926096,0.743386 -1.677655,1.023334 -0.351534,0.13094 -1.10294,0.341584 -1.331861,0.373364 -0.118582,0.01644 -0.156859,0.05692 -0.189469,0.200306 -0.07956,0.349779 -0.07969,1.769234 -1.93e-4,2.231321 0.135831,0.789689 0.419261,1.307803 0.824781,1.507707 0.149853,0.07389 0.268797,0.09556 0.522916,0.09535 0.228175,-1.94e-4 0.361638,-0.02897 0.555376,-0.119752 0.706508,-0.33108 1.328887,-1.191033 1.862629,-2.57362 0.07101,-0.183957 0.133646,-0.338996 0.139179,-0.344527 0.05489,-0.05489 0.04133,0.193624 -0.03474,0.635781 -0.290186,1.686999 -1.12004,2.894621 -2.18186,3.175088 -0.146875,0.03881 -0.209699,0.04503 -0.504791,0.05008 -0.233647,0.004 -0.374153,-0.0014 -0.458026,-0.01756 z m -0.225684,-5.427938 c 0.857429,-0.367005 1.477032,-0.759533 1.904144,-1.206304 0.438808,-0.458999 0.545925,-0.87125 0.378353,-1.456115 -0.0612,-0.21362 -0.115768,-0.319197 -0.224256,-0.433915 l -0.09253,-0.09785 -0.140056,0.0081 c -0.123631,0.0072 -0.158761,0.01748 -0.299644,0.08817 -0.348238,0.174675 -0.615446,0.436424 -0.920985,0.902176 -0.389818,0.594216 -0.650487,1.158769 -0.865029,1.873454 -0.100369,0.334349 -0.115708,0.45124 -0.05922,0.45124 0.0098,0 0.1535,-0.05802 0.319214,-0.128963 z M 46.87007,24.124928 c -0.936528,-0.197778 -1.550533,-1.13853 -1.788731,-2.740619 -0.06312,-0.42458 -0.07484,-1.207298 -0.02552,-1.706495 0.05877,-0.594972 0.257561,-1.357488 0.508135,-1.949066 0.522687,-1.234011 1.421814,-2.264541 2.083902,-2.388457 0.446482,-0.08357 0.956102,0.268572 1.263401,0.872984 0.051,0.100307 0.08699,0.188132 0.07996,0.195154 -0.0071,0.0071 -0.127427,-0.104394 -0.267567,-0.247589 -0.249061,-0.254486 -0.391445,-0.368133 -0.554338,-0.442465 -0.117927,-0.05381 -0.391914,-0.0537 -0.508645,1.94e-4 -0.107563,0.04967 -0.413528,0.347204 -0.565255,0.549669 -0.297562,0.397069 -0.610423,1.022308 -0.793618,1.586003 -0.251528,0.77396 -0.374013,1.636667 -0.332048,2.338724 0.03604,0.602785 0.101683,1.02245 0.226958,1.450869 0.220666,0.75463 0.494446,1.207491 0.793869,1.313131 0.285031,0.100566 0.636259,-0.100638 0.919898,-0.526986 0.111247,-0.167228 0.351102,-0.659058 0.450939,-0.924693 0.275051,-0.73182 0.558842,-1.82127 0.763145,-2.929636 0.162668,-0.882477 0.237517,-1.392801 0.294621,-2.00867 0.06003,-0.64731 0.09069,-0.760332 0.232267,-0.855738 0.04888,-0.03294 0.08124,-0.0393 0.199909,-0.0393 0.226256,0 0.459638,0.07007 0.567805,0.170492 0.09325,0.08658 0.104597,0.128078 0.111674,0.40852 0.0096,0.38214 -0.09022,1.424815 -0.222621,2.324694 -0.105787,0.719017 -0.06807,2.145765 0.07111,2.689957 0.04509,0.176273 0.15844,0.408972 0.220889,0.453438 0.129557,0.09225 0.313649,0.08327 0.522161,-0.02549 0.331511,-0.172917 0.63659,-0.564654 1.001096,-1.285454 0.183328,-0.362535 0.242595,-0.451111 0.217066,-0.324415 -0.08856,0.439486 -0.227472,0.866491 -0.389375,1.196915 -0.1438,0.293478 -0.25819,0.460403 -0.439323,0.64109 -0.126867,0.126552 -0.186033,0.17119 -0.303958,0.229323 -0.237653,0.117156 -0.458468,0.148256 -0.695718,0.09799 -0.295357,-0.06258 -0.511738,-0.27705 -0.688946,-0.682833 -0.07603,-0.174094 -0.09766,-0.202137 -0.129859,-0.168272 -0.01098,0.01153 -0.07212,0.160981 -0.135873,0.332093 -0.32237,0.865095 -0.659993,1.462172 -1.02177,1.806969 -0.346556,0.33029 -0.707801,0.515754 -1.157934,0.594493 -0.194858,0.03407 -0.323226,0.03244 -0.507692,-0.0066 z m 11.433352,-3.155116 c -0.454981,-0.122841 -0.764328,-0.433224 -0.982714,-0.98601 -0.187413,-0.474378 -0.307274,-1.303402 -0.426004,-2.946414 -0.0718,-0.993697 -0.119466,-1.433377 -0.21733,-2.004941 -0.243891,-1.424455 -0.503364,-2.071404 -0.911594,-2.272918 -0.317629,-0.156794 -0.557196,-0.09238 -0.758426,0.203947 -0.160432,0.236246 -0.319996,0.646821 -0.461495,1.187487 -0.181985,0.695335 -0.512434,2.302394 -0.721469,3.508649 -0.08522,0.491751 -0.08529,0.653011 -7.78e-4,1.2963 0.103664,0.787525 0.11698,1.027507 0.07162,1.289711 -0.068,0.392941 -0.290197,0.609581 -0.605253,0.590116 -0.292039,-0.01804 -0.506183,-0.208108 -0.632628,-0.561488 -0.04462,-0.124722 -0.06342,-0.545343 -0.04617,-1.033153 0.01232,-0.348155 0.01755,-0.395454 0.156407,-1.408647 0.116629,-0.851132 0.119146,-1.055567 0.02382,-1.935806 -0.09092,-0.8396 -0.161226,-1.193206 -0.276268,-1.389509 -0.138176,-0.235774 -0.33581,-0.193014 -0.545725,0.118076 -0.173178,0.256649 -0.280486,0.508578 -0.493259,1.158082 -0.08708,0.2658 -0.168546,0.486392 -0.181197,0.490606 -0.05641,0.01881 0.05561,-0.75295 0.17521,-1.206884 0.16163,-0.613519 0.3951,-0.980354 0.687411,-1.080068 0.09853,-0.03361 0.301814,-0.03348 0.400789,1.96e-4 0.211265,0.07199 0.430309,0.372881 0.594195,0.81625 0.04512,0.122081 0.08311,0.157501 0.101952,0.09506 0.005,-0.01663 0.04863,-0.205247 0.09694,-0.419136 0.115958,-0.513581 0.244186,-1.00881 0.319476,-1.23384 0.26482,-0.79152 0.687532,-1.33694 1.199912,-1.548229 0.490986,-0.202468 1.145659,-0.103088 1.618843,0.245748 0.343413,0.253164 0.650757,0.713049 0.817169,1.222738 0.115759,0.354553 0.252044,0.99594 0.337876,1.590127 0.09326,0.645704 0.104447,0.819692 0.157113,2.445684 0.06067,1.873533 0.08354,2.159873 0.202136,2.530951 0.09914,0.310208 0.226108,0.494789 0.408729,0.594182 0.379306,0.206447 1.000252,-0.0025 1.544131,-0.519491 0.473177,-0.449825 0.897133,-1.078264 1.337763,-1.983005 0.09966,-0.204613 0.189759,-0.372021 0.200236,-0.372021 0.06635,0 -0.194229,0.808269 -0.442663,1.373118 -0.279874,0.636327 -0.572317,1.086585 -0.959134,1.476734 -0.394449,0.397843 -0.791671,0.621624 -1.199023,0.675485 -0.18501,0.02445 -0.486078,0.02053 -0.590724,-0.0078 z"
         style="display:inline;fill:#4a244a;fill-opacity:1;stroke-width:0.44266483" />
      <path
         inkscape:connector-curvature="0"
         d="M 46.588068,0.67449641 C 46.449881,0.64879301 46.236852,0.8417012 45.936563,1.250718 c -0.423525,0.5768744 -0.81786,0.9396252 -1.149546,1.0568889 -0.222854,0.078787 -0.510205,-0.089543 -0.510205,-0.2988244 0,-0.3373233 -0.204612,-0.2955789 -0.586066,0.1198769 -0.21052,0.2292836 -0.422924,0.4169643 -0.472559,0.4169645 -0.04962,-2e-7 -0.118771,-0.3204304 -0.153467,-0.712314 -0.06981,-0.7887195 -0.170282,-0.90967445 -0.523521,-0.631817 -0.331523,0.2607755 -0.679494,0.3715408 -1.257266,0.399591 -0.394945,0.019178 -0.676304,0.1056008 -1.151284,0.3544196 -0.704353,0.368974 -0.904916,0.3606987 -1.114801,-0.045172 -0.07482,-0.1447409 -0.186833,-0.2629194 -0.24902,-0.2629191 -0.06219,0 -0.332722,0.2222087 -0.601122,0.4939868 C 37.899301,2.4131773 37.637954,2.6345743 37.58685,2.6336486 37.535751,2.6327302 37.372566,2.4275767 37.224324,2.1773052 36.699001,1.2904325 36.510971,1.2498145 36.120525,1.9392878 35.973615,2.1987128 35.687461,2.5439456 35.484078,2.7066182 L 35.11402,3.0025474 34.821566,2.6712922 C 34.660658,2.4891723 34.499721,2.2649889 34.464249,2.1732517 34.384694,1.9674841 34.034545,1.9486315 34.034545,2.1500853 c 0,0.1863613 -0.512686,0.6654059 -0.712314,0.6654059 -0.08483,0 -0.413804,0.1812344 -0.731426,0.4030655 -0.622198,0.4345528 -0.833629,0.4858189 -1.081209,0.261761 C 31.31068,3.3003017 31.203691,3.3655447 30.98028,3.8034652 30.744651,4.265335 30.628577,4.3220095 30.437069,4.0681216 l -0.15868,-0.2107987 -0.368315,0.3324134 c -0.202441,0.1828916 -0.398003,0.3311952 -0.434918,0.3295176 -0.163978,-0.0073 -0.476587,-0.3648757 -0.60981,-0.6978361 -0.07999,-0.1999226 -0.201407,-0.3849051 -0.26987,-0.4111733 -0.162184,-0.062237 -0.466318,0.3289742 -0.577959,0.7435864 -0.09682,0.3595569 -0.877772,1.2671086 -1.090477,1.2671086 -0.07365,0 -0.223291,-0.1848072 -0.332994,-0.4105943 -0.224702,-0.4625077 -0.491044,-0.5201034 -0.537998,-0.1164024 -0.01507,0.1293847 -0.119812,0.3218074 -0.232807,0.4279678 -0.265691,0.2496381 -1.359257,0.5641517 -1.72403,0.4957243 -0.235323,-0.044148 -0.315676,-0.0074 -0.521206,0.2368589 -0.13369,0.1588793 -0.322964,0.4448114 -0.420438,0.6358706 -0.210166,0.4119586 -0.30312,0.4325441 -0.462137,0.1007661 -0.07039,-0.1468712 -0.190415,-0.2472826 -0.296509,-0.2472831 -0.142726,5e-7 -0.184348,0.070145 -0.207322,0.3509452 -0.0158,0.1931221 -0.122509,0.4761435 -0.23686,0.6289213 -0.11435,0.1527784 -0.237634,0.379142 -0.273921,0.5026736 -0.03628,0.1235371 -0.126458,0.2938527 -0.200956,0.3787427 -0.18156,0.2068812 -0.446235,0.065447 -0.609809,-0.3260432 -0.145111,-0.3472979 -0.354207,-0.539583 -0.518309,-0.476613 -0.06536,0.025082 -0.190308,0.3027699 -0.277978,0.6167598 -0.217494,0.7789853 -0.402941,1.1349003 -0.702469,1.348185 L 19.117644,9.7475236 18.984447,9.4290097 C 18.911192,9.25367 18.85125,9.0546103 18.85125,8.9865639 c 0,-0.068043 -0.08471,-0.2005147 -0.188212,-0.2941911 -0.185875,-0.1682106 -0.190777,-0.1670773 -0.404225,0.081073 -0.14062,0.1634745 -0.21601,0.3625787 -0.21601,0.5704302 0,0.3584423 -0.45312,0.97241 -1.089899,1.47675 -0.323202,0.255983 -0.380815,0.273054 -0.575064,0.169101 -0.287038,-0.153619 -0.451636,-0.01548 -0.52468,0.441288 -0.03051,0.190801 -0.129069,0.438498 -0.219486,0.550162 l -0.164468,0.203269 -0.288979,-0.28261 c -0.490194,-0.479179 -0.562341,-0.391174 -0.613286,0.740693 -0.02372,0.526717 -0.08597,0.893964 -0.173734,1.027932 -0.130613,0.199402 -0.146046,0.201699 -0.361949,0.06023 -0.124125,-0.08135 -0.276875,-0.128221 -0.339361,-0.104244 -0.06249,0.02398 -0.206532,0.340314 -0.320253,0.703048 -0.26002,0.829387 -0.502927,1.243364 -0.72853,1.243364 -0.203278,0 -0.489606,0.430663 -0.569272,0.855358 -0.06822,0.363669 -0.28053,0.568454 -0.432021,0.416963 -0.242747,-0.242747 -0.500008,-0.114754 -0.803816,0.400171 -0.504385,0.854883 -0.727936,1.067891 -1.1211701,1.067891 H 9.3728393 l 0.031266,0.6573 c 0.040264,0.833533 -0.049567,1.449452 -0.2218022,1.515547 -0.073173,0.0281 -0.2246137,-0.03506 -0.3364668,-0.140144 -0.3541283,-0.332689 -0.4860415,-0.254387 -0.4742968,0.280871 0.015242,0.694618 -0.07968,0.953459 -0.370635,1.014614 -0.3986212,0.08378 -0.5172544,0.184532 -0.4864585,0.412331 0.078099,0.577411 0.037845,0.742568 -0.2426499,0.993185 -0.1556475,0.139075 -0.3482964,0.252496 -0.428547,0.252496 -0.2032819,0 -0.3840673,0.266694 -0.3874294,0.57101 -0.0027,0.242327 -0.1622664,0.434054 -0.8292959,1.000713 -0.1377711,0.117033 -0.1662882,0.219144 -0.12451,0.441868 0.078444,0.418177 -0.1369355,0.961867 -0.4499742,1.136228 -0.2435093,0.135587 -0.2611817,0.182595 -0.2611817,0.684519 0,0.29644 -0.045465,0.596221 -0.1007672,0.66598 -0.055308,0.06975 -0.1211485,0.316591 -0.1459374,0.548425 -0.029959,0.28036 -0.1390398,0.549527 -0.3260432,0.803815 -0.154639,0.210271 -0.2808716,0.428579 -0.2808716,0.485297 0,0.05673 -0.084811,0.179771 -0.1882132,0.273345 -0.3441783,0.311482 -0.3558898,0.425656 -0.132618,1.307067 0.1817709,0.717594 0.1972894,0.881604 0.1025044,1.111327 -0.089248,0.2163 -0.088538,0.32286 0.00521,0.539158 0.075108,0.173363 0.098746,0.448596 0.06544,0.771384 -0.065075,0.63037 0.051569,0.870637 0.8790999,1.809742 0.338964,0.384667 0.6161808,0.739648 0.6161808,0.788757 0,0.09692 -0.082511,0.113289 -0.4945661,0.09904 -1.8648212,-0.0646 -1.8825323,-0.06735 -2.872993,-0.412914 -0.5426021,-0.18931 -1.25015603,-0.476904 -1.57230338,-0.639347 -0.8930978,-0.450336 -1.86509472,-0.738599 -2.32168082,-0.687989 -0.3613845,0.04005 -0.4276847,0.09348 -0.9648092,0.774279 -0.6103574,0.773613 -0.6626762,0.939133 -0.4383917,1.388723 0.129741,0.26007 0.8032904,0.915005 0.9410656,0.915005 0.033192,0 0.184165,-0.111396 0.3358878,-0.247285 0.1517217,-0.13589 0.335416,-0.294862 0.4076985,-0.353259 0.094024,-0.07596 0.118063,-0.220176 0.085709,-0.507307 -0.039878,-0.353812 -0.018339,-0.41896 0.1783682,-0.547847 0.260724,-0.170834 0.3729078,-0.138753 1.23525714,0.351525 0.3211932,0.18261 0.87806798,0.405866 1.23699436,0.495723 0.3589258,0.08984 0.8033442,0.254515 0.987974,0.366002 0.3015674,0.18211 0.4637755,0.204408 1.5937305,0.218907 1.7653728,0.02267 1.7518296,0.02096 1.7518296,0.194005 0,0.08263 -0.1974422,0.3768 -0.4383919,0.653826 -0.3911418,0.449705 -0.4450233,0.563852 -0.5032527,1.065575 -0.064566,0.556307 -0.00588,0.915742 0.3596316,2.218016 0.220556,0.785802 0.4383179,2.049533 0.4430247,2.569546 0.00522,0.576275 0.1425531,0.799762 0.4922495,0.799762 0.3508521,0 0.7250549,0.422187 0.7250549,0.81829 0,0.402291 0.1332236,0.529313 0.5542151,0.529313 0.3125321,0 0.3631262,0.0385 0.656719,0.497459 0.1749688,0.273489 0.3883204,0.518615 0.4742969,0.544949 0.5002782,0.153117 0.9269461,0.41806 1.0464648,0.649193 0.073931,0.142963 0.2474753,0.308679 0.385693,0.368317 0.1382195,0.05965 0.4331052,0.329419 0.6549802,0.599967 0.467788,0.570395 0.714524,0.66652 1.132753,0.441287 0.349669,-0.188268 0.531857,-0.141532 0.606336,0.155204 0.102375,0.407871 0.527044,1.249058 0.655561,1.298382 0.07071,0.02712 0.200824,-0.01639 0.289558,-0.09672 0.125382,-0.113433 0.260111,-0.133042 0.603441,-0.08628 0.399655,0.05439 0.498872,0.120028 1.040672,0.688568 l 0.598808,0.628923 0.310407,-0.328941 c 0.170582,-0.180866 0.357423,-0.328938 0.415806,-0.328938 0.221613,0 0.606607,0.269096 1.01693,0.710575 0.233947,0.251675 0.490396,0.457504 0.569851,0.457504 0.07945,0 0.244814,0.07866 0.36716,0.174892 0.179276,0.141016 0.263012,0.156604 0.432602,0.07935 0.163028,-0.07431 0.256098,-0.06425 0.412331,0.04517 0.146441,0.102551 0.246896,0.116801 0.367739,0.05213 0.177575,-0.09503 0.303409,2.97e-4 0.816556,0.620812 0.278253,0.336455 0.545857,0.350924 0.591278,0.03184 0.06212,-0.436377 0.514593,-0.36682 1.1287,0.173735 0.384489,0.338447 0.444106,0.363409 0.632974,0.262339 0.114717,-0.06133 0.294643,-0.08426 0.399592,-0.05097 0.126536,0.04016 0.267891,-2.2e-4 0.419281,-0.119301 0.20947,-0.164749 0.253583,-0.168829 0.535682,-0.05097 0.169105,0.07067 0.440103,0.130491 0.602281,0.132617 0.40833,0.0054 1.060797,0.190327 1.320389,0.374109 0.119244,0.08413 0.265529,0.124771 0.325463,0.08977 0.148796,-0.08691 0.50495,-0.532022 0.751115,-0.939328 0.111987,-0.185306 0.242201,-0.337046 0.28956,-0.337046 0.134207,0 0.812092,0.362122 1.12754,0.602281 0.244538,0.186166 0.310965,0.200733 0.467347,0.103089 0.140019,-0.08747 0.290511,-0.09141 0.652086,-0.01736 0.596605,0.122209 0.885058,0.04421 1.069051,-0.28898 0.207865,-0.376436 0.821902,-0.415881 1.40436,-0.09034 0.468447,0.261817 0.569851,0.237652 0.569851,-0.136094 0,-0.377403 0.318621,-0.514424 0.860568,-0.369477 0.219869,0.05882 0.541332,0.107139 0.714632,0.107139 0.184947,0 0.454008,0.09168 0.651504,0.222382 0.451874,0.299034 0.848127,0.373922 1.001293,0.189371 0.06501,-0.07839 0.18466,-0.142464 0.265817,-0.142464 0.08116,0 0.301572,-0.08261 0.489932,-0.183581 0.37374,-0.200308 0.578045,-0.176374 0.824663,0.09614 0.226322,0.250081 0.350662,0.221493 0.49862,-0.114664 0.09411,-0.213824 0.176502,-0.282999 0.308091,-0.259444 0.376145,0.06739 1.244882,-0.0042 1.426945,-0.117562 0.104501,-0.065 0.297152,-0.142909 0.427965,-0.173157 0.142363,-0.03292 0.312644,-0.181468 0.423917,-0.370056 0.155442,-0.263458 0.236327,-0.31504 0.495724,-0.31504 0.170611,0 0.428244,0.06739 0.572165,0.149991 0.340363,0.195304 0.537033,0.11104 0.71058,-0.305771 0.227768,-0.547003 0.517853,-0.617931 1.018667,-0.248443 0.33021,0.243627 0.611524,0.290528 0.674091,0.112349 0.228516,-0.65074 0.203422,-0.624845 0.449975,-0.463292 0.299223,0.196053 0.753812,0.121057 1.164605,-0.192268 0.195046,-0.148737 0.372628,-0.218664 0.465611,-0.183001 0.09415,0.03613 0.237187,-0.02251 0.382794,-0.157521 0.127805,-0.118556 0.367029,-0.240786 0.53163,-0.271605 0.164606,-0.03078 0.40254,-0.13706 0.528736,-0.236281 0.126185,-0.09926 0.322695,-0.180683 0.436652,-0.180683 0.309532,0 0.347135,-0.149156 0.169683,-0.671198 -0.08823,-0.259606 -0.135308,-0.538121 -0.104243,-0.619077 0.07374,-0.192263 0.502788,-0.192312 0.907477,0.0012 0.288064,0.137126 0.32859,0.136482 0.533946,0.0029 0.127506,-0.08354 0.247955,-0.271543 0.282029,-0.440709 0.134657,-0.668431 0.09523,-0.638596 0.751696,-0.569853 1.086203,0.11377 1.026515,0.125488 1.224255,-0.241492 0.157771,-0.292796 0.223492,-0.336866 0.504411,-0.337046 0.205764,-1.55e-4 0.380354,-0.06341 0.481246,-0.174892 0.09531,-0.105305 0.303224,-0.185738 0.521784,-0.202112 0.275523,-0.02061 0.408373,-0.0883 0.55074,-0.279713 l 0.187635,-0.252499 -0.200954,-0.348627 c -0.130535,-0.226805 -0.16778,-0.369483 -0.105981,-0.407699 0.05231,-0.03233 0.130212,-0.151688 0.173155,-0.264654 0.06766,-0.177964 0.160029,-0.212086 0.690887,-0.25771 1.354801,-0.116374 1.593322,-0.229985 1.329655,-0.632394 -0.156773,-0.239262 -0.117112,-0.414068 0.09381,-0.414068 0.06945,0 0.264343,-0.121663 0.433182,-0.269871 0.197348,-0.173279 0.404956,-0.269288 0.580856,-0.269288 0.189557,0 0.331866,-0.07399 0.462712,-0.240335 0.10389,-0.132023 0.278296,-0.284342 0.38801,-0.338783 0.109712,-0.05448 0.212383,-0.188876 0.228171,-0.298824 0.01577,-0.109949 0.09176,-0.200375 0.168524,-0.200375 0.07675,0 0.367089,-0.118429 0.645136,-0.263497 0.27805,-0.145079 0.578936,-0.286205 0.668881,-0.313884 0.275463,-0.0847 0.142532,-0.42561 -0.27566,-0.705944 -0.210014,-0.140764 -0.382217,-0.284449 -0.382217,-0.319672 0,-0.06353 1.224854,-0.283766 1.578675,-0.283766 0.10132,0 0.25928,-0.05475 0.351521,-0.122193 0.161864,-0.118361 0.15961,-0.138885 -0.07239,-0.582593 -0.132203,-0.252834 -0.240332,-0.480532 -0.240332,-0.506149 0,-0.02562 0.182799,-0.04633 0.405963,-0.04633 0.375259,0 0.416688,-0.02364 0.555371,-0.314459 0.125129,-0.262428 0.197325,-0.314461 0.436655,-0.314461 0.309013,0 0.537578,-0.192562 0.462136,-0.389167 -0.07159,-0.18656 0.07122,-0.350852 0.397275,-0.457504 0.198509,-0.06495 0.312952,-0.169439 0.347468,-0.316777 0.0353,-0.150726 0.138852,-0.242161 0.330678,-0.291873 0.153742,-0.03983 0.30352,-0.135128 0.33299,-0.211958 0.07031,-0.183263 -0.138605,-0.668864 -0.381057,-0.88489 -0.26202,-0.233459 -0.241057,-0.384838 0.05501,-0.398434 0.135891,-0.0064 0.545757,-0.02212 0.910954,-0.03532 0.814872,-0.02948 0.973672,-0.174191 0.658455,-0.600544 -0.109635,-0.148291 -0.199215,-0.287553 -0.199215,-0.30925 0,-0.0217 0.292677,-0.06847 0.650927,-0.103664 0.780625,-0.07672 0.900127,-0.148955 0.777755,-0.470822 -0.124893,-0.328483 -0.04048,-0.4714 0.277395,-0.471403 0.201998,0 0.299748,-0.05672 0.371794,-0.214849 0.104587,-0.229543 0.422981,-0.414072 0.714051,-0.414072 0.09806,0 0.199369,-0.05522 0.225278,-0.122771 0.04475,-0.116638 -0.416043,-0.891506 -0.596491,-1.003031 -0.141951,-0.08773 -0.09548,-0.221802 0.07702,-0.221802 0.08923,0 0.477842,-0.0938 0.863466,-0.208485 0.81018,-0.240918 0.979101,-0.418221 0.690307,-0.725632 -0.244618,-0.26037 -0.237727,-0.362258 0.0336,-0.485877 0.122174,-0.05567 0.24704,-0.200479 0.277399,-0.321414 0.033,-0.131497 0.141751,-0.241627 0.270447,-0.273922 0.118351,-0.0297 0.275987,-0.171204 0.350366,-0.315039 0.104061,-0.201238 0.249521,-0.295159 0.630657,-0.405961 0.272419,-0.07919 0.495145,-0.159659 0.495145,-0.178947 0,-0.01928 0.02336,-0.09644 0.05212,-0.17142 0.03532,-0.09207 -0.06676,-0.211374 -0.31446,-0.367738 -0.201722,-0.127341 -0.366581,-0.271892 -0.366581,-0.321411 0,-0.129139 0.499273,-0.418474 1.110168,-0.643399 l 0.526417,-0.194003 -0.04575,-0.343995 c -0.04926,-0.36725 -0.02532,-0.387321 0.565218,-0.453451 0.189188,-0.02116 0.225765,-0.07296 0.229909,-0.328935 0.0039,-0.240807 0.07534,-0.360349 0.345157,-0.576802 0.187283,-0.150246 0.468385,-0.337307 0.62429,-0.415227 0.417828,-0.208818 0.391902,-0.53819 -0.05907,-0.750536 -0.288579,-0.135886 -0.338128,-0.199791 -0.314461,-0.404224 0.02293,-0.197893 0.139747,-0.30095 0.634132,-0.560006 0.333429,-0.174714 0.666971,-0.404712 0.741271,-0.510781 0.0743,-0.106077 0.251277,-0.218412 0.39322,-0.2496 0.141977,-0.0312 0.354016,-0.159865 0.471403,-0.286084 0.117387,-0.126221 0.385325,-0.348619 0.59533,-0.493987 0.485359,-0.335956 0.504299,-0.590149 0.06775,-0.923112 -0.172953,-0.131915 -0.314462,-0.29397 -0.314462,-0.360212 0,-0.13548 0.368642,-0.255278 0.560004,-0.181842 0.0688,0.02641 0.19647,-0.03095 0.283769,-0.127407 0.129594,-0.143201 0.139583,-0.210952 0.05443,-0.370055 -0.120332,-0.224838 -0.113583,-0.235085 0.283767,-0.434338 0.163815,-0.08214 0.344521,-0.24408 0.401326,-0.359633 0.05684,-0.115558 0.249406,-0.314235 0.427969,-0.441286 0.356952,-0.253972 0.401516,-0.456699 0.189371,-0.863463 -0.07377,-0.141539 -0.134355,-0.308296 -0.134355,-0.370057 0,-0.116817 0.543139,-0.347468 1.066737,-0.453447 0.186123,-0.03768 0.319528,-0.126143 0.346308,-0.228753 0.02402,-0.09184 0.180992,-0.247402 0.348629,-0.346311 0.167644,-0.09892 0.305834,-0.252382 0.30751,-0.340523 0.0016,-0.09105 0.170858,-0.26199 0.392066,-0.396115 0.388777,-0.23573 0.389221,-0.236858 0.346311,-0.683358 -0.05225,-0.543754 0.07521,-0.81113 0.404224,-0.848987 0.205472,-0.02365 0.251815,-0.07754 0.275079,-0.318514 0.01926,-0.19918 0.110867,-0.348635 0.293036,-0.47835 0.145781,-0.103804 0.240331,-0.228649 0.210219,-0.277398 -0.03014,-0.04875 0.0061,-0.156967 0.0799,-0.240333 0.07386,-0.08336 0.148165,-0.227962 0.165627,-0.32141 0.02099,-0.112439 0.16666,-0.209901 0.430863,-0.287821 0.219576,-0.06476 0.502596,-0.224434 0.628921,-0.354999 0.126284,-0.130563 0.432236,-0.344785 0.679306,-0.476034 0.360194,-0.191343 0.455062,-0.290136 0.478928,-0.499778 0.01639,-0.143803 0.08957,-0.3528 0.162733,-0.464452 0.07317,-0.1116509 0.120269,-0.2772908 0.104822,-0.3677398 -0.01951,-0.1142507 0.07332,-0.2138524 0.304037,-0.3266212 0.479667,-0.2344567 0.908558,-0.7495434 0.842615,-1.0122977 -0.04544,-0.181036 0.0037,-0.2343341 0.369478,-0.3961161 0.528029,-0.2335715 1.016347,-0.600498 1.016347,-0.7638556 0,-0.068281 0.07698,-0.148581 0.170842,-0.1783683 0.09383,-0.029789 0.304273,-0.2749236 0.467925,-0.544949 0.163647,-0.2700255 0.349804,-0.4910915 0.41349,-0.4910915 0.135454,0 0.156411,-0.2339483 0.02778,-0.3133024 -0.04839,-0.02991 -0.159875,-0.015807 -0.247863,0.031272 -0.08794,0.047077 -0.555929,0.1035237 -1.040094,0.1256684 -0.71861,0.032862 -0.928052,0.076039 -1.140858,0.2333844 -0.189866,0.1403796 -0.390846,0.1928459 -0.739536,0.1928459 -0.300715,0 -0.609452,0.06657 -0.829872,0.1789472 L 83.414117,6.4976131 83.217796,6.3128746 83.021475,6.1287156 82.718598,6.3134541 C 82.551965,6.4150371 82.323809,6.4985833 82.211291,6.4987715 82.098769,6.498956 81.729225,6.6442709 81.390102,6.8219187 80.813329,7.1240631 80.759729,7.1362686 80.561388,7.0083946 80.379633,6.8912177 80.30094,6.8885639 80.008909,6.9904416 79.821531,7.0558196 79.523042,7.1367179 79.345819,7.169968 79.168593,7.203217 78.808714,7.3254132 78.546057,7.4415737 78.026382,7.671415 77.952219,7.6453205 77.844748,7.1954491 c -0.07429,-0.3109925 -0.171309,-0.30924 -0.876783,0.017373 -0.314384,0.1455602 -0.685298,0.2919907 -0.824086,0.3254638 -0.246383,0.059417 -0.251762,0.052873 -0.224696,-0.2837673 0.03468,-0.4312532 -0.178895,-0.5097171 -0.580855,-0.2125362 -0.225285,0.1665638 -0.302372,0.1829654 -0.444183,0.094396 -0.09429,-0.058823 -0.247839,-0.082499 -0.34168,-0.052699 -0.09386,0.029798 -0.251379,0.010985 -0.349785,-0.041697 -0.134249,-0.071846 -0.269437,-0.059281 -0.542055,0.049804 -0.199844,0.079969 -0.421282,0.1231412 -0.491669,0.096132 -0.177793,-0.068225 -0.218524,-0.4180982 -0.08165,-0.7024689 0.09638,-0.200244 0.09325,-0.2558796 -0.02144,-0.3509452 -0.111507,-0.092546 -0.180051,-0.080859 -0.379324,0.06602 -0.223016,0.164392 -1.185652,0.5681143 -1.355133,0.5681143 -0.113798,0 -0.280871,-0.431848 -0.280871,-0.7262132 0,-0.1474676 -0.05181,-0.2878034 -0.115242,-0.3121441 -0.06344,-0.024343 -0.476724,0.1383966 -0.918482,0.3619483 -0.441755,0.2235516 -0.82896,0.4065403 -0.859989,0.4065403 -0.03111,0 -0.04365,-0.2192205 -0.02897,-0.4870375 0.03751,-0.6759946 -0.0504,-0.7213864 -0.844356,-0.4383919 -0.6231,0.2221096 -0.657549,0.225308 -0.825242,0.073549 C 67.332536,5.533108 67.212969,5.5064815 67.033188,5.5519128 66.435285,5.7030184 66.117591,5.7066144 65.91491,5.5646539 65.658016,5.3846624 65.307465,5.3807971 64.973849,5.5548093 64.832309,5.6286342 64.667288,5.6894377 64.607266,5.6897437 64.43199,5.6906332 64.295287,5.3428465 64.358243,5.0561894 64.438923,4.6888808 64.215511,4.6223991 63.760018,4.8784006 63.563143,4.989049 63.392715,5.0654292 63.381275,5.0480822 63.369828,5.0307415 63.312291,4.9039073 63.253289,4.766631 63.108815,4.4304362 62.947384,4.3863582 62.371294,4.5245597 c -0.452795,0.1086246 -0.497603,0.1044764 -0.615602,-0.055017 -0.109936,-0.1485035 -0.110289,-0.1988283 0.0018,-0.370635 0.289147,-0.4460072 0.01245,-0.52212 -0.538578,-0.147675 -0.408091,0.2773274 -1.072731,0.4970242 -1.27232,0.4204392 -0.107561,-0.041275 -0.128966,-0.1468498 -0.09323,-0.4679271 0.02538,-0.2280961 0.07486,-0.5097897 0.109453,-0.6260256 0.08623,-0.2897186 -0.109278,-0.3947126 -0.427968,-0.2299095 -0.137961,0.07134 -0.443733,0.1536623 -0.679304,0.1830009 -0.235567,0.02934 -0.601344,0.1097048 -0.813082,0.1783684 -0.518474,0.1681583 -1.097427,0.1657055 -1.097427,-0.00462 0,-0.071204 0.04033,-0.1541892 0.08977,-0.1847384 0.131885,-0.081509 0.109781,-0.3665206 -0.03823,-0.4893542 -0.09969,-0.082739 -0.215744,-0.076776 -0.51715,0.024901 -0.21351,0.072042 -0.610221,0.1451487 -0.881995,0.1627318 l -0.493988,0.031852 0.02838,-0.2629193 c 0.01559,-0.1445998 0.09007,-0.3820657 0.165625,-0.5281549 0.113859,-0.2201862 0.116293,-0.279027 0.01622,-0.3428375 -0.06642,-0.042339 -0.181269,-0.051574 -0.255391,-0.02027 -0.07412,0.031322 -0.243871,0.061332 -0.377586,0.066598 -0.133709,0.00523 -0.300359,0.087756 -0.370053,0.1830008 -0.121124,0.1655359 -0.140564,0.1660683 -0.444171,0.022005 -0.37569,-0.1782939 -0.602349,-0.1887829 -0.921344,-0.043436 -0.196535,0.089553 -0.28745,0.078912 -0.556534,-0.066021 -0.176903,-0.095271 -0.416525,-0.1611782 -0.532786,-0.1459374 -0.182081,0.023861 -0.211378,-0.010155 -0.211378,-0.2478619 0,-0.268868 -0.190684,-0.386918 -0.310987,-0.1922672 -0.0879,0.1422084 -1.21766,0.904581 -1.340653,0.904581 -0.07697,0 -0.113445,-0.1240354 -0.108299,-0.370056 0.01109,-0.5274915 -0.169673,-0.620225 -0.727368,-0.3729512 -0.622861,0.2761675 -1.166808,0.3335833 -1.442583,0.1528868 -0.213859,-0.1400701 -0.424603,-0.1387847 -0.764434,0.00405 -0.1339,0.056277 -0.157684,0.014796 -0.158678,-0.280293 -0.0019,-0.46517914 -0.06513,-0.70977604 -0.203273,-0.73547851 z m -0.27508,0.72910839 c 0.0271,-0.00582 0.01931,0.069087 -0.0104,0.2536536 -0.07843,0.4872136 0.113641,0.6109153 0.64977,0.4181225 0.307853,-0.1107103 0.456326,-0.1237417 0.590119,-0.05212 0.105101,0.056235 0.392855,0.073055 0.698417,0.041118 0.30755,-0.032141 0.54253,-0.017868 0.575063,0.034746 0.03023,0.04891 -0.09252,0.2806116 -0.272766,0.5148353 -0.640187,0.831923 -1.409697,1.9614013 -1.728084,2.5371125 -0.177628,0.3211922 -0.399713,0.6951441 -0.493407,0.8310331 -0.09371,0.1358913 -0.206041,0.2472832 -0.250178,0.247283 -0.188111,0 -0.28689,-0.7745446 -0.217172,-1.7072375 0.03878,-0.5188498 0.0779,-1.0439643 0.08687,-1.1675003 0.08303,-1.1479034 0.170117,-1.7214128 0.282029,-1.8595452 0.04485,-0.055362 0.07348,-0.088011 0.08977,-0.091501 z M 42.50066,1.7024292 c 0.159719,3.261e-4 0.132507,0.1200005 -0.06254,0.4013283 -0.459556,0.6628168 -1.279069,1.9311675 -1.633691,2.529005 -0.20505,0.3456888 -0.438601,0.6951724 -0.519467,0.7760169 -0.129438,0.1293958 -0.157151,0.1307765 -0.231068,0.012162 C 40.007714,5.3468204 39.94386,5.1138288 39.91201,4.9032105 39.84656,4.4704912 39.734931,4.3435525 39.651407,4.6067024 c -0.06139,0.1934686 0.0079,0.7025907 0.153467,1.1321744 0.05118,0.1510492 0.051,0.2536606 -0.01332,0.4129106 0.03724,0.087147 0.07142,0.1782158 0.103088,0.2733434 0.178109,-0.2862868 0.490995,-0.7750755 1.243943,-1.9325141 0.423233,-0.6505994 0.858151,-1.3305184 0.967127,-1.5109168 0.241802,-0.400319 0.398074,-0.4722659 0.538576,-0.2472834 0.145706,0.2333016 0.643023,0.2236817 0.950912,-0.018532 0.174856,-0.1375014 0.30707,-0.1733496 0.483562,-0.1297223 0.731506,0.1808008 0.88009,0.1465607 1.42405,-0.3329924 0.11582,-0.1021032 0.214946,-0.1341135 0.248443,-0.079919 0.05479,0.088632 -0.08152,2.391966 -0.174315,2.9471276 -0.02607,0.1560071 0.01678,0.5937406 0.09496,0.9723377 l 0.142465,0.6879914 -0.23107,0.3758471 c -0.127026,0.2066083 -0.385463,0.6179408 -0.574484,0.9144259 -0.807921,1.2672448 -1.573037,2.4992255 -2.20354,3.5488315 -0.371041,0.617677 -0.813313,1.345695 -0.982762,1.617475 -0.330473,0.530034 -0.477847,0.898627 -0.359053,0.897632 0.09643,-8.01e-4 0.261695,-0.259815 1.463429,-2.29041 0.555636,-0.938869 1.098415,-1.828283 1.206302,-1.9765284 0.107884,-0.1482403 0.360743,-0.5523098 0.561745,-0.8982097 1.100722,-1.8942303 1.21821,-2.0829786 2.501785,-4.0144408 1.125508,-1.6936174 1.152316,-1.7309759 1.701446,-2.4021784 0.520787,-0.636554 0.689835,-0.7305838 0.615602,-0.3422582 -0.02347,0.1228221 0.03205,0.2967321 0.135512,0.424493 0.169628,0.2094738 0.182828,0.2114019 0.389168,0.060807 0.11735,-0.085647 0.39258,-0.2752091 0.611547,-0.4215975 0.375495,-0.2510267 0.407467,-0.2574838 0.56464,-0.1152443 0.143326,0.1297054 0.209679,0.135275 0.474876,0.03938 0.272341,-0.098481 0.337547,-0.090777 0.558268,0.068336 0.216702,0.1562203 0.308774,0.1686733 0.692046,0.094395 0.367371,-0.071201 0.469655,-0.060573 0.606336,0.063124 0.284136,0.2571412 0.241992,0.3868694 -0.464454,1.4263658 -0.07411,0.1090659 -0.276446,0.4195541 -0.449392,0.6903076 -0.753238,1.1791993 -1.293242,1.9574164 -1.358609,1.9574164 -0.03877,0 -0.09606,-0.151165 -0.126829,-0.3364672 -0.09183,-0.5525403 -0.126455,-0.6259323 -0.223538,-0.469664 -0.09137,0.147054 -0.01862,0.8032318 0.103664,0.9364326 0.192221,0.2093829 0.176755,0.2383619 -1.77847,3.3548261 -0.411914,0.656558 -0.748796,1.21159 -0.748796,1.233522 0,0.02193 -0.134974,0.252711 -0.299984,0.513096 -0.165006,0.260384 -0.40358,0.695929 -0.529893,0.967706 -0.07273,0.156469 -0.211929,0.404938 -0.365422,0.666563 0.108284,-0.06215 0.182599,-0.101568 0.260023,-0.1442 0.08364,-0.146264 0.15081,-0.269494 0.225278,-0.397275 0.227289,-0.390017 0.648042,-1.113485 0.934693,-1.607629 0.28665,-0.494142 0.629234,-1.060185 0.76154,-1.2578431 0.132301,-0.1976586 0.739388,-1.1882344 1.348765,-2.201225 0.609374,-1.0129914 1.414432,-2.3064744 1.789473,-2.8747377 0.37504,-0.5682632 0.712404,-1.1070877 0.749375,-1.1976144 0.129732,-0.3176891 0.88457,-1.203063 1.115381,-1.3082258 0.07697,-0.035066 0.13705,-0.057363 0.18242,-0.06486 0.136118,-0.022494 0.137053,0.088634 0.04228,0.3920622 -0.09498,0.3040919 -0.08694,0.3520431 0.08456,0.493987 0.227775,0.188532 0.513808,0.1980656 1.134491,0.037063 0.255332,-0.066265 0.496692,-0.096929 0.536262,-0.067757 0.03955,0.02917 0.07627,0.1868292 0.08165,0.350366 0.01616,0.4884153 0.120225,0.526327 0.969442,0.3515243 0.891265,-0.1834587 1.222217,-0.1948957 1.220202,-0.042275 -8.89e-4,0.061767 -0.243516,0.4753638 -0.539159,0.9190589 -0.295644,0.4436941 -0.53742,0.8629463 -0.53742,0.9317996 0,0.2220119 0.23257,-0.045607 0.782965,-0.9016852 0.635464,-0.9883899 0.888418,-1.306237 0.973498,-1.2213583 0.03573,0.035643 0.01362,0.2501291 -0.04981,0.4766134 -0.08198,0.2927928 -0.08776,0.4394584 -0.01909,0.5078858 0.145768,0.1457668 1.188835,0.1331643 1.531764,-0.018532 0.321386,-0.1421669 0.323973,-0.1406821 0.605757,0.3266222 0.07493,0.1242554 0.195839,0.1557717 0.539158,0.139567 0.243371,-0.011487 0.510851,-0.041761 0.594754,-0.067178 0.105402,-0.031925 0.198196,0.04115 0.299402,0.2368591 0.130499,0.2523576 0.177587,0.2771222 0.431443,0.2264348 0.582882,-0.1163874 0.622625,-0.1069143 0.714633,0.1731559 0.0487,0.1482423 0.128378,0.3204463 0.177209,0.3822176 0.119841,0.1515941 0.504216,0.1406591 0.818292,-0.023166 0.344966,-0.1799089 0.537094,-0.1691352 0.727372,0.041118 0.161274,0.1782373 0.396668,0.1801948 0.952067,0.00753 0.152859,-0.047527 0.286091,-0.029867 0.399013,0.052701 0.226109,0.1653355 0.514,0.1563119 1.047045,-0.033009 0.38984,-0.1384561 0.452189,-0.1412498 0.527574,-0.022585 0.04704,0.074028 0.05977,0.1951699 0.02778,0.2692894 -0.03175,0.074122 -0.0612,0.2360973 -0.06602,0.3596319 -0.01369,0.3519459 0.502436,0.3537762 1.194139,0.00462 0.299101,-0.1509843 0.596324,-0.2745016 0.660774,-0.2745016 0.06444,0 0.197229,0.1716277 0.29477,0.3816384 0.172923,0.3722146 0.187879,0.381987 0.591279,0.3688976 0.227571,-0.0074 0.548677,-0.083311 0.713473,-0.168523 0.292679,-0.1513502 0.303315,-0.1503777 0.462134,0.04575 0.08943,0.1104302 0.162155,0.2723323 0.162155,0.3596321 0,0.2938675 0.235166,0.3992503 0.628342,0.2814509 0.194195,-0.058151 0.451916,-0.081299 0.572745,-0.050962 0.120829,0.030326 0.304198,0.00987 0.407118,-0.045172 0.144776,-0.077471 0.233135,-0.06978 0.390905,0.033589 0.137479,0.090102 0.247913,0.1063225 0.338205,0.049226 0.203034,-0.1283667 0.268711,-0.1051708 0.268711,0.094395 0,0.3413824 0.373914,0.4082974 1.007665,0.1806846 0.310432,-0.1114946 0.602824,-0.2386569 0.649766,-0.2826091 0.167226,-0.1565647 0.408302,-0.086301 0.419284,0.1221938 0.0194,0.3681736 -0.06113,0.6052764 -0.435498,1.2804287 -0.05479,0.098828 -0.187536,0.3613875 -0.294772,0.5837515 -0.107235,0.222364 -0.286121,0.5053845 -0.397851,0.6289205 -0.11173,0.123535 -0.336059,0.461774 -0.498619,0.751694 -0.332205,0.592466 -0.372554,0.616111 -2.352955,1.369612 -1.226037,0.466479 -1.601259,0.585862 -1.601259,0.509623 0,-0.05924 0.526776,-1.675048 0.913268,-2.801189 0.243269,-0.7088127 0.269655,-0.960882 0.07991,-0.7673309 -0.0452,0.046121 -0.225612,0.5133803 -0.400748,1.0383579 -0.175141,0.52498 -0.497656,1.35416 -0.71637,1.842172 -0.443679,0.990005 -0.334078,0.898093 -1.942358,1.628477 -1.790671,0.813214 -2.524588,1.121525 -2.567226,1.078895 -0.02428,-0.02428 0.117282,-0.343281 0.314459,-0.708839 0.19718,-0.365557 0.475899,-0.946736 0.619076,-1.29201 0.143142,-0.345273 0.46799,-1.054538 0.722161,-1.575778 0.254168,-0.521242 0.462135,-0.983967 0.462135,-1.028512 0,-0.236658 -0.335447,0.35351 -1.392199,2.447348 l -1.168078,2.314154 -1.213252,0.599965 c -1.234714,0.610988 -2.355632,1.126894 -3.18746,1.474432 0.0553,0.124529 0.103213,0.250369 0.136672,0.378743 0.893059,-0.323487 1.501078,-0.602983 2.95813,-1.326178 0.900266,-0.446842 1.74937,-0.812502 1.886763,-0.812502 0.137403,0 0.421733,0.06081 0.631817,0.134934 0.210082,0.07412 0.503314,0.134354 0.651508,0.134354 0.258562,0 1.868875,0.467349 2.807561,0.81482 0.436516,0.161583 2.55565,0.825015 3.189199,0.998397 0.172947,0.04732 0.438947,0.123723 0.5907,0.169681 0.151741,0.04595 0.362988,0.08397 0.469662,0.08397 0.106677,0 0.359753,0.06602 0.562321,0.147096 0.304391,0.121798 0.359395,0.180438 0.317359,0.337046 -0.028,0.104234 -0.05145,0.23615 -0.05212,0.293034 -5.93e-4,0.05687 -0.143383,0.187496 -0.317359,0.290137 -0.213284,0.125842 -0.333779,0.273813 -0.370054,0.455185 -0.039,0.194977 -0.173868,0.346188 -0.489936,0.549004 -0.324059,0.207949 -0.430674,0.329862 -0.415804,0.474298 0.02468,0.239563 -0.118826,0.237183 -1.192982,-0.01794 -0.420021,-0.09976 -1.37025,-0.287254 -2.111461,-0.416964 -0.741214,-0.129713 -1.610168,-0.312279 -1.931359,-0.405382 -3.750614,-1.087207 -4.741953,-1.32487 -6.728181,-1.614579 -0.166192,-0.02425 -0.301207,-0.04087 -0.408276,-0.04981 0.01267,0.08197 0.0198,0.16426 0.02374,0.246705 0.286387,0.07537 0.831489,0.182224 1.991584,0.392642 0.469438,0.08515 1.136644,0.227326 1.48254,0.315618 1.092221,0.278825 2.675201,0.721674 3.234369,0.904581 0.626074,0.204778 0.864413,0.257406 2.380753,0.528155 0.617675,0.110284 1.621074,0.316466 2.230179,0.458081 0.60911,0.141618 1.225734,0.257708 1.370194,0.257708 0.371434,0 0.34059,0.246171 -0.05155,0.410015 -0.172948,0.07226 -0.314458,0.170274 -0.314461,0.218327 0,0.04806 -0.171629,0.196063 -0.381639,0.328939 -1.729786,1.09446 -2.113426,1.401178 -2.151416,1.719399 -0.03231,0.270466 -0.06984,0.281575 -0.656721,0.195162 -0.24707,-0.03638 -0.789496,-0.110531 -1.205723,-0.16447 -0.416227,-0.05393 -1.022625,-0.157679 -1.347607,-0.230488 -0.324981,-0.07281 -1.116395,-0.218661 -1.758777,-0.324304 -0.642382,-0.105638 -1.471567,-0.266931 -1.842173,-0.358474 -0.370608,-0.09155 -1.27991,-0.29336 -2.021117,-0.448818 -0.741195,-0.155453 -1.792605,-0.395639 -2.336159,-0.533365 -0.246487,-0.06245 -0.489314,-0.119235 -0.732005,-0.172578 -5.94e-4,0.02212 -0.0051,0.05217 -0.01563,0.09035 0.03295,0.05454 0.06779,0.107843 0.09846,0.163891 0.02055,0.03755 0.01864,0.07434 0.0034,0.110611 0.247377,0.05365 0.402647,0.08517 0.745326,0.160994 0.894656,0.197972 1.929095,0.417984 2.299094,0.488775 0.370003,0.07079 1.113846,0.229579 1.652801,0.353261 1.218208,0.279561 1.781419,0.388857 3.091328,0.599966 0.568262,0.09159 1.17466,0.207715 1.347603,0.257707 0.172952,0.05001 0.55714,0.11182 0.853621,0.137251 0.853095,0.07317 2.038071,0.301879 2.146789,0.414648 0.0735,0.07626 -0.03529,0.22435 -0.417545,0.568693 -0.284129,0.255965 -0.516574,0.534898 -0.516571,0.619656 0,0.08892 -0.123377,0.205803 -0.291876,0.276239 -0.374567,0.156572 -0.537415,0.355905 -0.500935,0.613863 0.02468,0.174581 -0.06757,0.253278 -0.619659,0.528156 -1.086239,0.540812 -1.239373,0.794196 -0.723893,1.197613 0.303514,0.237538 0.294778,0.251664 -0.225858,0.366002 -0.138006,0.0303 -0.272099,0.124645 -0.298243,0.209637 -0.09839,0.319718 -0.192372,0.417992 -0.463295,0.488199 -0.213258,0.05527 -0.28527,0.129528 -0.306934,0.31504 -0.01986,0.170161 -0.09275,0.257577 -0.244389,0.293033 -0.346734,0.08106 -0.440638,0.315807 -0.255386,0.639924 0.0867,0.151672 0.137338,0.308798 0.112347,0.349208 -0.08255,0.133541 -0.878942,0.359632 -1.266528,0.359632 -0.776542,0 -0.839736,0.16536 -0.305774,0.798603 0.197654,0.23441 0.35905,0.453239 0.35905,0.486457 0,0.03322 -0.137593,0.117939 -0.30577,0.188215 -0.168196,0.07027 -0.331874,0.209539 -0.363688,0.309828 -0.03472,0.109387 -0.151077,0.193989 -0.291296,0.210799 -0.246828,0.0296 -0.346164,0.152448 -0.423333,0.525257 -0.05967,0.288222 -0.561044,0.488664 -1.011142,0.404224 -0.487203,-0.0914 -0.777617,0.29644 -0.434916,0.580856 0.286252,0.237568 0.148764,0.342784 -0.531629,0.406539 -0.559535,0.05239 -0.703229,0.100627 -0.895895,0.301721 l -0.229329,0.239752 0.260601,0.393223 0.260024,0.3938 -0.285505,0.349787 c -0.156965,0.192447 -0.437963,0.429952 -0.624867,0.528155 -0.239998,0.126109 -0.355198,0.255589 -0.392062,0.440126 -0.04217,0.210841 -0.104844,0.266304 -0.324884,0.288403 -0.149978,0.01507 -0.307162,0.09826 -0.349207,0.18474 -0.04203,0.08646 -0.110763,0.227986 -0.152888,0.314458 -0.0528,0.108404 -0.204066,0.165513 -0.487039,0.184161 -0.593571,0.03918 -0.694225,0.203267 -0.429705,0.701888 0.116012,0.218689 0.195177,0.410209 0.175473,0.425652 -0.132701,0.103943 -1.269688,0.333256 -1.418257,0.286086 -0.235649,-0.0748 -0.549003,0.09327 -0.549003,0.29419 0,0.08583 0.12584,0.309506 0.280293,0.496881 l 0.28087,0.340522 -0.252494,0.263497 c -0.178915,0.186752 -0.338768,0.264079 -0.547265,0.264079 -0.206114,0 -0.324528,0.05595 -0.394378,0.186474 -0.133267,0.249022 -0.780581,0.891843 -0.898214,0.891843 -0.152034,0 -0.762608,0.334698 -0.889522,0.487617 -0.06451,0.07772 -0.225728,0.141303 -0.358472,0.141303 -0.132748,0 -0.318404,0.05584 -0.412333,0.124509 -0.14934,0.109198 -0.156499,0.156142 -0.0585,0.371217 0.173056,0.379838 0.068,0.3641 -0.403067,-0.06081 -1.18385,-1.067868 -2.367038,-2.719804 -2.579967,-3.602109 -0.07155,-0.296435 -0.05338,-0.298183 0.573906,-0.05908 1.573861,0.599957 3.885306,1.201679 4.124469,1.073682 0.09754,-0.05223 0.46508,-0.06691 0.882579,-0.03475 0.512478,0.03952 0.734524,0.02477 0.782387,-0.0527 0.03675,-0.05947 0.03949,-0.135881 0.0059,-0.16968 -0.03362,-0.03377 -0.674439,-0.08594 -1.424047,-0.116403 -1.223395,-0.04966 -1.477494,-0.09008 -2.485572,-0.391482 -0.617678,-0.18468 -1.345697,-0.393939 -1.617476,-0.465033 -0.666793,-0.174468 -2.089839,-0.747665 -3.593423,-1.447792 -0.520363,-0.242306 -0.983538,-0.448885 -1.411885,-0.634713 1.04e-4,0.07449 5.94e-4,0.148968 5.94e-4,0.22354 -1.4e-5,0.01062 8e-6,0.02122 0,0.03184 0.352529,0.153571 0.76954,0.341245 1.276375,0.579695 1.12743,0.530428 1.371218,0.6336 1.909348,0.80787 0.336166,0.108861 0.4714,0.198823 0.4714,0.313303 0,0.56072 1.637169,3.002184 2.629192,3.920622 0.304648,0.282046 0.499492,0.529239 0.463294,0.587803 -0.04063,0.0657 -0.259932,0.08506 -0.627183,0.05559 -0.61464,-0.04934 -0.758063,0.01888 -0.758063,0.36079 0,0.116906 -0.04152,0.290083 -0.09209,0.384535 -0.06669,0.124617 -0.05399,0.262205 0.04575,0.500936 0.158231,0.378712 0.05,0.615302 -0.239179,0.52352 -0.09763,-0.03098 -0.304799,0.02544 -0.486457,0.13262 -0.174062,0.102696 -0.413783,0.186477 -0.532789,0.186477 -0.119241,0 -0.340288,0.121322 -0.492248,0.269867 -0.302931,0.296131 -0.507701,0.325113 -1.123488,0.160417 -0.384563,-0.102841 -0.418879,-0.09664 -0.626025,0.112346 -0.120576,0.121642 -0.271352,0.380035 -0.335308,0.573906 -0.06396,0.193883 -0.165768,0.368305 -0.225856,0.388008 -0.17348,0.05685 -0.961465,-0.738377 -1.614002,-1.629057 -0.321672,-0.439078 -0.706589,-0.926561 -0.876782,-1.111904 -0.08412,0.03566 -0.165315,0.07478 -0.247285,0.112927 0.08833,0.10793 0.179973,0.218803 0.251339,0.315039 0.201539,0.27178 0.599566,0.808443 0.88431,1.192405 0.284752,0.383977 0.594307,0.739164 0.687994,0.789336 0.268885,0.143904 0.200695,0.257417 -0.192269,0.320252 -0.451316,0.07217 -0.574325,0.278786 -0.506728,0.849565 0.03442,0.290966 0.01577,0.440255 -0.05791,0.468507 -0.05951,0.02282 -0.431076,-0.07347 -0.825823,-0.214275 -0.394738,-0.140831 -0.778525,-0.257411 -0.853038,-0.258866 -0.07451,-0.0016 -0.325625,-0.103483 -0.55769,-0.227013 -0.232058,-0.123537 -0.483207,-0.224698 -0.558268,-0.224698 -0.279164,0 -2.213208,-0.921845 -2.878212,-1.371931 C 41.155295,46.79445 40.622203,46.498502 40.265879,46.33612 39.90956,46.173744 39.463308,45.943606 39.274433,45.824763 38.949248,45.620137 37.449185,44.78353 36.370737,44.20555 35.270829,43.616075 34.49729,43.25874 33.900224,43.064689 33.554325,42.952261 33.16137,42.783777 33.027494,42.69 c -0.133876,-0.09376 -0.628515,-0.349406 -1.099745,-0.568115 -0.471228,-0.218714 -1.06943,-0.552864 -1.329073,-0.742427 -0.569633,-0.415889 -2.242362,-1.395115 -2.779763,-1.627318 -0.213116,-0.09209 -1.075099,-0.541967 -1.91514,-0.999558 -0.84004,-0.457592 -1.870968,-1.013676 -2.290988,-1.235838 -0.419994,-0.222161 -1.127538,-0.615607 -1.572266,-0.873885 -0.685706,-0.398232 -2.310661,-1.173031 -4.020231,-1.91688 -0.48324,-0.210266 -0.540433,-0.34679 -0.179527,-0.427388 1.312682,-0.293155 4.12277,-1.195507 5.335987,-1.713608 0.128441,-0.05484 0.226466,-0.08482 0.321988,-0.0915 0.09553,-0.0068 0.18856,0.0098 0.306932,0.0475 0.934866,0.296759 1.793037,0.600172 2.190801,0.774861 0.248508,0.109133 0.673039,0.251393 0.943382,0.315617 0.449234,0.106731 3.624826,1.664993 5.028474,2.467617 0.321191,0.183663 1.554444,0.812763 2.740384,1.397991 0.778564,0.3842 1.727396,0.867321 2.599657,1.316333 2.1e-5,-0.09634 -2.2e-5,-0.192663 0,-0.288979 -0.059,-0.02898 -0.09588,-0.04639 -0.155782,-0.07586 -1.344229,-0.661502 -3.130979,-1.535883 -3.971022,-1.942944 -0.840041,-0.407065 -2.022586,-1.020329 -2.627456,-1.362664 -0.604833,-0.342332 -1.513316,-0.805561 -2.018767,-1.029668 -0.505452,-0.224106 -1.023818,-0.482149 -1.151866,-0.573329 -0.128047,-0.09118 -0.351653,-0.19404 -0.496882,-0.228749 -0.145227,-0.03471 -0.36466,-0.116963 -0.488194,-0.18242 -0.292366,-0.154914 -1.324224,-0.548236 -1.636007,-0.623712 -0.263752,-0.06386 -0.48396,-0.267168 -0.36716,-0.339361 0.06488,-0.0401 1.059585,-0.316412 2.323419,-0.645718 -0.01747,-0.11766 -0.03084,-0.236539 -0.03648,-0.357894 -0.06527,-0.15253 -0.115897,-0.293219 -0.158678,-0.429124 -0.318157,0.121826 -0.484721,0.151995 -0.484721,0.08456 0,-0.04626 0.159647,-0.321794 0.357314,-0.63645 -0.01699,-0.117037 -0.02681,-0.235291 -0.03359,-0.356156 -0.19642,0.28498 -0.360809,0.528432 -0.595332,0.862304 -0.198748,0.282951 -0.431131,0.551993 -0.516573,0.597653 -0.08544,0.04565 -0.570259,0.187964 -1.077735,0.316193 -0.507485,0.128191 -1.073527,0.298113 -1.257843,0.378164 -0.184317,0.08004 -0.779728,0.28206 -1.323283,0.448816 -0.543556,0.16676 -0.996513,0.304075 -1.005927,0.304618 -0.129685,0.0071 -0.0043,-0.311502 0.469665,-1.194141 0.313178,-0.583164 0.638876,-1.270832 0.723316,-1.52771 0.213325,-0.64895 0.928703,-2.321152 1.680019,-3.925836 0.07343,-0.156832 0.170873,-0.383998 0.263499,-0.597069 -0.02094,-0.0148 -0.02444,-0.01621 -0.04633,-0.03185 -0.05227,-0.03734 -0.101073,-0.07944 -0.15115,-0.119878 -0.14937,0.362832 -0.41801,0.951566 -0.639924,1.394514 -0.239901,0.478849 -0.739355,1.623723 -1.110168,2.544062 -1.136143,2.819846 -1.656875,3.65096 -2.430555,3.881824 -0.197104,0.05881 -0.823355,0.248699 -1.391619,0.421595 -0.568263,0.172901 -1.324532,0.397564 -1.681177,0.49978 -0.356646,0.102209 -0.710721,0.210118 -0.786442,0.239175 -0.08642,0.03317 -0.137829,0.0019 -0.137829,-0.08398 0,-0.07504 0.479135,-1.024628 1.064418,-2.110301 0.585276,-1.085673 1.134499,-2.150458 1.220779,-2.366273 0.136091,-0.34043 2.102721,-4.385852 2.57707,-5.30124 0.09311,-0.179675 0.169135,-0.381998 0.169103,-0.449394 -2.5e-5,-0.05305 0.0964,-0.28646 0.216011,-0.546686 -0.06158,-0.02295 -0.122912,-0.04619 -0.181842,-0.07123 -0.05945,0.132303 -0.110945,0.241711 -0.163891,0.360788 -0.621036,1.39687 -1.923761,4.020646 -2.260294,4.552443 -0.161653,0.255446 -0.523607,0.963001 -0.804394,1.572301 -0.280785,0.609303 -0.543029,1.149038 -0.583171,1.19935 -0.04014,0.05035 -0.250558,0.43454 -0.467348,0.853622 -0.43027,0.831754 -1.145626,2.088143 -1.359766,2.388859 -0.103826,0.145807 -0.48392,0.27778 -1.644694,0.57043 -0.830551,0.20939 -1.874056,0.457446 -2.318784,0.550739 -0.444725,0.09331 -0.8164085,0.170196 -0.8258229,0.17084 -0.1246748,0.0085 -0.081144,-0.282226 0.1106119,-0.738373 0.281551,-0.66976 0.670038,-1.824838 0.670039,-1.991585 0,-0.187828 0.881994,-2.139765 1.486015,-3.288806 0.116886,-0.222369 0.292106,-0.626435 0.389167,-0.898211 0.393229,-1.101029 0.92931,-2.381689 1.703184,-4.068878 0.448478,-0.977764 1.021085,-2.332073 1.272898,-3.009671 0.251813,-0.6776 0.537044,-1.429448 0.633554,-1.670754 0.09651,-0.241307 0.175473,-0.481436 0.175473,-0.533367 0,-0.05193 0.07848,-0.258915 0.174315,-0.459819 0.651506,-1.365776 1.664441,-3.77704 1.889659,-4.498003 0.06175,-0.197656 0.26431,-0.70289 0.449974,-1.122909 0.185665,-0.420018 0.508759,-1.268663 0.718105,-1.886184 0.209345,-0.617525 0.45039,-1.264845 0.535684,-1.437948 0.08529,-0.1731033 0.208875,-0.5469039 0.274502,-0.8310332 0.06562,-0.2841345 0.14757,-0.5165737 0.182421,-0.5165737 0.03487,0 0.166236,0.080701 0.291874,0.1795267 0.125641,0.098828 0.283838,0.1795268 0.351526,0.1795268 0.258996,0 0.555593,-0.3168543 0.79976,-0.8553568 0.243634,-0.5373218 0.466142,-0.7598201 0.578539,-0.577959 0.141665,0.2292232 0.401546,0.053849 0.771383,-0.5206262 0.440527,-0.6842643 0.496436,-0.7382068 0.769068,-0.7401119 0.107181,-7.709e-4 0.309502,-0.06019 0.449396,-0.1326177 0.139887,-0.072431 0.404532,-0.1552163 0.588381,-0.1835802 0.183852,-0.028367 0.452594,-0.1506161 0.59707,-0.2721852 0.349346,-0.2939492 0.558568,-0.2742316 0.777756,0.074127 0.09984,0.1586922 0.222402,0.2884 0.272765,0.2884002 0.05036,0 0.433209,-0.3637201 0.850721,-0.8084474 0.417513,-0.4447273 0.801468,-0.8200214 0.85304,-0.8339288 0.05158,-0.013909 0.210906,0.097484 0.35442,0.247283 0.305129,0.3184873 0.391179,0.328978 0.837405,0.1042412 0.183331,-0.092335 0.520929,-0.1953817 0.749954,-0.2287515 0.236472,-0.034459 0.485331,-0.1364852 0.575644,-0.23628 0.08746,-0.096645 0.227105,-0.1754724 0.310406,-0.1754724 0.08326,0 0.660071,-0.2634276 1.282166,-0.5854876 0.622099,-0.3220606 1.148814,-0.5545065 1.170397,-0.5165722 0.02159,0.037927 -0.160829,0.4326341 -0.405384,0.8773624 -0.537087,0.9767069 -1.337366,2.5447776 -1.581567,3.0994352 -0.09792,0.2223636 -0.33847,0.7685222 -0.534526,1.2132506 -0.196054,0.4447273 -0.380295,0.878918 -0.410014,0.9653888 -0.06323,0.1839278 -0.199425,0.204651 -0.298825,0.045169 -0.08263,-0.1325944 -0.190796,-0.8527063 -0.258865,-1.7257691 -0.05326,-0.6830523 -0.06894,-0.7269081 -0.224697,-0.6306587 -0.160905,0.099448 -0.0063,1.4662392 0.337045,2.9784003 0.02574,0.1134059 -0.07799,0.4517494 -0.247862,0.8084474 -0.160698,0.337444 -0.446711,0.936656 -0.635291,1.331969 -0.444082,0.930906 -0.977549,2.107687 -0.977549,2.156055 0,0.02083 -0.368853,0.797831 -0.820032,1.726347 -0.224593,0.462209 -0.373241,0.785976 -0.528155,1.120013 0.03333,0.04161 0.06136,0.08634 0.08744,0.133197 0.0066,0.004 0.01072,0.0078 0.01678,0.01158 5.92e-4,3.86e-4 0.0012,-5.9e-5 0.0019,5.93e-4 0.01764,0.0111 0.02786,0.01985 0.04344,0.03012 0.135317,-0.291397 0.299608,-0.66579 0.393219,-0.901107 0.152911,-0.384389 0.667608,-1.468325 1.572302,-3.335715 0.0088,-0.02371 0.01605,-0.04793 0.02607,-0.07123 0.0602,-0.139861 0.12972,-0.274481 0.20501,-0.406541 0.111214,-0.228977 0.146858,-0.30664 0.271608,-0.562902 0.339432,-0.697286 0.617338,-1.299352 0.617338,-1.338339 0,-0.03899 0.09548,-0.277305 0.212533,-0.529314 0.117009,-0.2520072 0.456997,-0.9837776 0.755171,-1.6261611 1.120346,-2.4136732 2.553951,-5.2276621 2.805822,-5.5074046 0.143919,-0.1598454 0.339914,0.00951 0.376426,0.3254638 0.02088,0.1806214 0.0837,0.247182 0.253076,0.2669731 0.169289,0.01978 0.323017,-0.076328 0.616758,-0.3845338 0.733374,-0.7694789 0.730209,-0.7725587 0.732003,0.6468738 8.9e-4,0.7633705 0.04032,1.2850339 0.130304,1.7848394 0.06306,-0.085769 0.128754,-0.1653742 0.198058,-0.2380174 -0.0575,-0.4072131 -0.06089,-0.7846677 -0.03301,-1.5960468 0.02604,-0.757758 0.07032,-1.4005461 0.09788,-1.4281034 0.08643,-0.086439 0.328788,0.1730012 0.463872,0.4963037 0.119451,0.2858816 0.152716,0.305891 0.421596,0.2530742 0.18839,-0.037011 0.430824,-0.208132 0.683941,-0.4824047 l 0.39206,-0.425072 0.254814,0.3051948 0.254809,0.3051948 0.431443,-0.1627319 c 0.237107,-0.089729 0.511559,-0.2118339 0.610387,-0.2710271 0.09884,-0.059195 0.543827,-0.1964232 0.988556,-0.3051944 0.444726,-0.108768 0.939778,-0.2321451 1.100321,-0.2739225 0.09541,-0.024832 0.169724,-0.037753 0.222962,-0.037644 z M 60.464878,21.514029 c -0.01477,-0.02444 -0.02882,-0.04938 -0.04402,-0.07353 -0.04058,0.04279 -0.07315,0.07993 -0.110033,0.119878 -8.91e-4,0.0013 -8.91e-4,0.0027 -0.0019,0.004 -0.0303,0.05069 -0.04126,0.06953 -0.06949,0.116981 -0.0027,0.01088 -0.0074,0.0231 -0.0104,0.03417 0.04074,0.0087 0.09623,0.02092 0.138989,0.03012 0.03457,-0.04872 0.07421,-0.149357 0.09672,-0.231648 z M 60.2396,21.681395 c 0.0048,-0.01885 0.0055,-0.0362 0.0092,-0.05443 -0.02747,0.03022 -0.04176,0.0496 -0.06717,0.07819 0.0112,0.0024 0.02743,0.0063 0.03881,0.0087 0.0078,-0.01293 0.01127,-0.01931 0.01913,-0.03244 z m 0.181264,-0.240915 c 0.0083,-0.0087 0.01519,-0.01633 0.02259,-0.02431 -0.01497,-0.0031 -0.03019,-0.0061 -0.04517,-0.0092 0.0073,0.01134 0.01539,0.02216 0.0226,0.0336 z M 39.784601,3.6239402 c -0.04941,0 -0.08976,0.04034 -0.08976,0.089764 0,0.04941 0.04034,0.089763 0.08976,0.089763 0.04941,0 0.08977,-0.040355 0.08977,-0.089763 0,-0.04941 -0.04034,-0.089764 -0.08977,-0.089764 z m 11.230817,1.0783164 c -0.04941,0 -0.08975,0.062534 -0.08975,0.1395672 0,0.077034 0.04033,0.1151007 0.08975,0.08455 0.04941,-0.030535 0.08977,-0.09307 0.08977,-0.1395672 0,-0.046496 -0.04036,-0.084553 -0.08977,-0.08455 z M 28.241635,5.2512595 c -0.01233,-0.00322 -0.02841,-0.00116 -0.04749,0.00521 -0.06379,0.021266 -0.204377,0.299189 -0.312724,0.6179183 -0.108344,0.3187291 -0.345077,0.9356259 -0.525838,1.3707703 -0.180758,0.4351457 -0.328358,0.8439505 -0.328358,0.9086349 0,0.064683 -0.07534,0.2139889 -0.167365,0.3318343 C 26.76783,8.603475 26.664,8.8010653 26.629374,8.9246 c -0.131507,0.4686828 -0.549576,1.343049 -0.643399,1.345289 -0.162576,0.004 -0.301483,-0.4123421 -0.441866,-1.3284943 -0.214058,-1.3969438 -0.244091,-1.5459718 -0.326043,-1.5966267 -0.103202,-0.063765 -0.0984,0.3977095 0.01099,1.0754205 0.04882,0.3021803 0.127876,0.8052942 0.176052,1.1176966 0.04818,0.3124004 0.149896,0.6920809 0.225857,0.8443529 0.185375,0.371608 0.175093,0.481502 -0.07586,0.817135 -0.224893,0.300776 -0.755034,1.515536 -1.076001,2.464722 -0.104436,0.308838 -0.219845,0.561165 -0.256546,0.561165 -0.148555,0 -0.415165,-0.722593 -0.562903,-1.527131 -0.163627,-0.89109 -0.534456,-2.023856 -0.694942,-2.123045 -0.135302,-0.08363 -0.03995,0.455976 0.181264,1.026196 0.101455,0.261507 0.227734,0.827 0.280292,1.256685 0.06909,0.564814 0.173404,0.933206 0.377006,1.330233 l 0.282032,0.549581 -0.187638,0.501515 c -0.103182,0.275786 -0.367253,0.885071 -0.586643,1.354555 -0.101599,0.217414 -0.183609,0.411151 -0.262921,0.599387 0.0073,-0.0027 0.01469,-0.0054 0.02201,-0.0082 0.0086,-0.0029 0.01814,-0.004 0.02723,-0.0052 0.123086,-0.0152 0.156601,-0.02148 0.193425,-0.02085 0.234963,-0.572206 0.450245,-1.093907 0.703049,-1.675967 0.35837,-0.825101 0.413842,-0.953914 0.618496,-1.437368 0.115049,-0.271779 0.298239,-0.635499 0.407122,-0.808449 0.108884,-0.172949 0.266452,-0.557133 0.350368,-0.853618 0.166947,-0.589887 0.420874,-1.138991 0.68104,-1.472116 0.09204,-0.117845 0.167361,-0.309747 0.167367,-0.426809 0,-0.117061 0.183479,-0.6071385 0.407697,-1.0887402 0.726234,-1.5599445 0.929992,-2.0292223 1.258996,-2.8973245 0.356407,-0.9403965 0.442988,-1.224949 0.356737,-1.2474187 z m 32.986517,0.2901378 c -0.06242,-0.062415 -1.267158,2.0876595 -1.543346,2.7542814 -0.133579,0.3224091 -0.716367,1.5482916 -1.244523,2.6425113 l 0.04054,0.02722 c 0.02636,0.0678 0.05742,0.134276 0.08744,0.200954 0.237272,-0.491991 0.444934,-0.923616 0.770804,-1.5937314 0.511483,-1.0517962 0.930064,-1.9359081 0.930064,-1.9649445 0,-0.029026 0.225219,-0.4965771 0.500356,-1.0389363 0.27514,-0.5423594 0.481341,-1.0046381 0.45866,-1.0273538 z m -3.5801,0.3439956 c -0.0201,-0.0038 -0.05746,0.020936 -0.112929,0.077601 -0.138899,0.1418891 -0.69109,1.0970218 -0.802078,1.3875646 -0.140088,0.3667105 0.366742,-0.2233583 0.652664,-0.7598016 0.227334,-0.4265244 0.322641,-0.6939664 0.262343,-0.705364 z m 28.955279,0.1615737 c 0.08847,-0.00308 0.169681,0.078479 0.169681,0.2183272 0,0.1513204 -0.09391,0.2711939 -0.31446,0.4013282 -0.194309,0.1146457 -0.314462,0.255054 -0.314462,0.3671603 5e-6,0.1325281 -0.150982,0.2575738 -0.561162,0.4638728 -0.640914,0.3223401 -0.692928,0.3791015 -0.694941,0.7615394 -0.0016,0.3135028 -0.138661,0.4564496 -0.720422,0.7505362 -0.473499,0.2393541 -0.556348,0.3430436 -0.443026,0.5547937 0.06109,0.1141503 0.02814,0.2233578 -0.122775,0.4094365 -0.113111,0.1394691 -0.27021,0.3564371 -0.349206,0.4824041 -0.07898,0.125966 -0.319731,0.301005 -0.535105,0.389167 -0.477841,0.195599 -0.664486,0.296971 -1.155336,0.625446 -0.365461,0.244568 -0.379291,0.27019 -0.338207,0.634713 0.04068,0.361261 0.02712,0.388731 -0.280871,0.553635 -0.224282,0.12009 -0.332234,0.245394 -0.350947,0.406541 -0.01889,0.162439 -0.113951,0.270767 -0.314458,0.359054 -0.231588,0.101961 -0.306357,0.205263 -0.384536,0.53105 -0.109745,0.457399 -0.244374,0.514082 -0.761538,0.320831 -0.175477,-0.06556 -0.529018,-0.148258 -0.785861,-0.18358 -0.256843,-0.03531 -0.489471,-0.101165 -0.517152,-0.145939 -0.02766,-0.04478 -0.203538,-0.08106 -0.390905,-0.08106 -0.187367,0 -0.457859,-0.03546 -0.601123,-0.07876 -0.831206,-0.251356 -1.72047,-0.476602 -2.55159,-0.646295 -0.51885,-0.105937 -1.004197,-0.212962 -1.078316,-0.237437 -0.143313,-0.04732 -0.05958,-0.09269 0.943381,-0.510783 0.296486,-0.123593 0.931458,-0.388132 1.410728,-0.588383 0.479266,-0.200252 0.995067,-0.364263 1.146076,-0.364263 0.151008,0 0.829979,0.145177 1.509177,0.322568 1.561492,0.407826 2.524903,0.579557 2.596766,0.463293 0.08223,-0.133065 -0.123827,-0.222435 -0.771966,-0.335888 -0.772445,-0.135209 -2.698498,-0.658348 -2.699846,-0.733163 -5.92e-4,-0.03208 0.251167,-0.139106 0.560007,-0.238016 0.308837,-0.09891 0.985823,-0.345284 1.504546,-0.547845 1.017693,-0.3974111 1.188571,-0.4353312 1.115959,-0.246126 -0.0345,0.08988 0.07954,0.139341 0.429127,0.184739 0.262131,0.03404 0.713081,0.122245 1.001871,0.196321 0.288798,0.07407 0.571816,0.117224 0.628923,0.09556 0.151599,-0.05756 -0.891136,-0.508746 -1.179081,-0.510203 -0.315256,-0.0017 -0.648612,-0.091589 -0.648612,-0.1748925 0,-0.035811 0.323985,-0.1718786 0.719841,-0.3022984 0.395856,-0.1304218 0.930703,-0.3791624 1.188929,-0.5530585 0.25822,-0.1738971 0.52275,-0.3161976 0.587803,-0.3161976 0.171179,0 1.277606,-0.7434464 1.576354,-1.0592058 0.160253,-0.1695246 0.218223,-0.2910594 0.156944,-0.3289385 -0.113637,-0.070231 -0.161668,-0.043819 -0.815975,0.4511323 -0.271777,0.2055873 -0.655962,0.4533775 -0.85362,0.5507404 -0.197656,0.097363 -0.68916,0.3456256 -1.092215,0.55132 -0.403058,0.2056934 -0.773558,0.3741099 -0.823506,0.3741099 -0.04997,0 -0.568115,0.1798287 -1.151285,0.3995919 -0.583165,0.2197623 -1.078763,0.3806168 -1.101479,0.3578928 -0.02271,-0.02273 0.03237,-0.1923211 0.122194,-0.3770059 0.162664,-0.3344152 0.587803,-1.3730497 0.587803,-1.43621 0,-0.1508546 -0.222161,0.2061613 -0.629501,1.0117181 -0.265325,0.5247058 -0.545928,0.9878408 -0.623129,1.0290908 -0.196069,0.104758 -2.360032,0.901686 -2.448508,0.901686 -0.121867,0 -0.08115,-0.184776 0.09614,-0.435497 0.179469,-0.253814 0.738304,-1.3402745 1.126379,-2.1896418 0.217063,-0.4750652 0.257085,-0.5132086 0.525841,-0.5061483 0.159873,0.00426 0.472575,-0.094395 0.694939,-0.2189063 0.467185,-0.2615988 1.003907,-0.3704365 1.71245,-0.3468912 0.386754,0.012854 0.599107,-0.036073 0.936435,-0.2154316 0.478463,-0.2544033 1.063177,-0.4119142 1.618632,-0.4360754 0.437108,-0.019009 1.045629,-0.1418536 1.168079,-0.2362795 0.04942,-0.038102 0.323569,-0.072258 0.609809,-0.075284 0.366941,-0.00389 0.594019,-0.057198 0.769066,-0.1818428 0.187318,-0.1334449 0.337839,-0.1649296 0.613287,-0.1279851 0.222613,0.029853 0.389087,0.010072 0.426811,-0.050962 0.04241,-0.068623 0.09806,-0.1012356 0.151149,-0.1030835 z M 65.931744,6.2757177 c -0.0866,-0.053522 -0.925669,1.6263728 -1.36498,2.7322757 -0.147645,0.3716714 -0.644511,1.4446606 -1.1038,2.3848056 -0.459287,0.940144 -0.865261,1.807568 -0.902264,1.927301 -0.03702,0.119729 -0.365702,0.834112 -0.730268,1.587359 -0.11677,0.24132 -0.205694,0.437325 -0.299983,0.642243 0.0079,0.01414 0.01666,0.02562 0.02431,0.03997 0.01826,0.01414 0.02681,0.01998 0.04807,0.03648 0.0369,0.0286 0.136043,0.113303 0.08976,0.10714 -0.02825,-0.0038 -0.0466,-0.0088 -0.07353,-0.01274 0.01585,0.03257 0.0291,0.06647 0.04402,0.09962 0.364904,-0.772946 0.831108,-1.772522 1.084108,-2.329789 0.276336,-0.608678 0.757331,-1.632386 1.06905,-2.274772 0.311719,-0.642385 0.596422,-1.2686639 0.632396,-1.3921987 0.03598,-0.1235358 0.0954,-0.2650389 0.132038,-0.3144592 0.06889,-0.092955 1.218389,-2.6231601 1.354555,-2.9812964 0.04398,-0.1157752 0.0425,-0.2234398 -0.0034,-0.2519159 z m -4.312689,9.4448233 c -0.02132,-0.04383 -0.04161,-0.08846 -0.06429,-0.130881 -0.0137,-0.01062 -0.0196,-0.0143 -0.03185,-0.02375 -0.01824,0.03969 -0.04136,0.08739 -0.05849,0.12509 0.05334,0.0096 0.0953,0.02074 0.154623,0.02953 z M 55.757232,8.0269681 c -0.03688,3.262e-4 -0.07832,0.029742 -0.11756,0.093239 -0.03193,0.051785 -0.03587,0.1529414 -0.0081,0.2246975 0.08098,0.211149 0.235122,0.1497435 0.235122,-0.093817 0,-0.1433648 -0.04797,-0.2246704 -0.109453,-0.2241186 z m -33.051956,0.089184 c -0.0091,-0.00481 -0.01878,-0.00509 -0.02896,5.928e-4 -0.02713,0.014523 -0.05827,0.066176 -0.09267,0.1557828 -0.09591,0.2499486 -0.06635,1.5300548 0.03997,1.7286653 0.132658,0.247871 0.305407,0.23274 0.237439,-0.020848 -0.02979,-0.1111808 -0.05488,-0.5760612 -0.0556,-1.0331436 -7.41e-4,-0.5122041 -0.03666,-0.7969715 -0.100193,-0.8310338 z m 33.31951,0.5768016 c -0.04382,-0.043814 -0.476677,0.5820865 -0.734901,1.025616 0.06409,5.336e-4 0.128173,9.204e-4 0.192267,5.936e-4 0.0019,-0.00279 0.0033,-0.00631 0.0052,-0.0092 0.322802,-0.5307821 0.564539,-0.9878376 0.53742,-1.0169286 z M 19.873391,9.7834314 c 0.0646,-0.013319 0.05683,0.050402 -0.01679,0.1893703 -0.04806,0.09071 -0.256562,0.6702813 -0.463294,1.2879573 -0.206734,0.617677 -0.497137,1.405931 -0.645137,1.75183 -0.405883,0.94861 -0.763104,1.837549 -0.930062,2.313572 -0.08232,0.234717 -0.179403,0.42681 -0.215433,0.42681 -0.0904,0 -0.398152,-0.428055 -0.61618,-0.856514 -0.243,-0.477533 -0.54546,-1.513365 -0.597649,-2.047758 -0.02328,-0.238284 -0.09079,-0.492047 -0.15057,-0.56406 -0.175597,-0.211581 0.03801,-0.540374 0.477772,-0.7349 0.355531,-0.157267 1.300375,-1.033565 1.645272,-1.525974 0.187428,-0.2675902 0.292149,-0.2528957 0.326622,0.04575 0.04168,0.361171 0.292094,0.356228 0.76791,-0.01448 0.216059,-0.1683277 0.352935,-0.2582875 0.417542,-0.2716046 z m -3.808272,2.5104736 5.93e-4,0.404224 c 4.14e-4,0.222363 0.09694,0.763488 0.214273,1.202247 0.175322,0.655553 0.263496,0.836545 0.493985,1.01693 0.189093,0.147982 0.280501,0.298225 0.280873,0.460397 3.26e-4,0.132308 0.08076,0.36138 0.178948,0.509624 0.09816,0.148243 0.179201,0.325229 0.179526,0.39322 5.62e-4,0.116533 -0.82267,2.115068 -1.151286,2.795399 h 5.92e-4 c -0.250161,0.5179 -0.4287,0.460649 -0.743584,-0.239174 -0.15183,-0.337249 -0.34972,-0.916194 -0.440156,-1.2868 -0.593051,-2.430381 -0.623206,-2.696856 -0.36195,-3.189776 0.104757,-0.197659 0.210942,-0.561378 0.236279,-0.808449 0.08774,-0.855386 0.09757,-0.873587 0.415227,-0.803814 0.243045,0.05338 0.313106,0.02524 0.489933,-0.195744 z m 56.337677,0.889522 c 0.193336,0.0078 0.478043,0.05449 0.992608,0.14536 0.612686,0.108211 1.306044,0.230409 1.540452,0.271605 0.234406,0.04119 0.800452,0.177009 1.257843,0.301721 0.80251,0.218812 2.414471,0.608811 3.00388,0.726793 0.157186,0.03146 0.333763,0.115537 0.392642,0.186474 0.0879,0.105927 0.04894,0.152983 -0.218327,0.264657 -0.178996,0.07478 -0.325465,0.169958 -0.325465,0.211377 0,0.04142 -0.121043,0.202195 -0.269288,0.357317 -0.148243,0.155123 -0.26987,0.322891 -0.26987,0.37295 0,0.05005 -0.187744,0.141235 -0.417542,0.202692 -0.234705,0.06278 -0.57058,0.250048 -0.766173,0.426809 -0.341206,0.308364 -0.345143,0.319401 -0.210798,0.571589 0.0754,0.141535 0.136673,0.293286 0.136673,0.337046 0,0.120831 -0.637213,0.08876 -0.951492,-0.04806 -0.152812,-0.06652 -0.455717,-0.148335 -0.673511,-0.181843 -0.621093,-0.09555 -2.372003,-0.643395 -4.438937,-1.388143 -0.694311,-0.250173 -1.033083,-0.345948 -1.61747,-0.458083 -0.49297,-0.0946 -0.816372,-0.169663 -1.370196,-0.317935 -0.111177,-0.02977 -0.20211,-0.0852 -0.20211,-0.123352 0,-0.08382 0.07785,-0.119999 2.06629,-0.964229 0.86475,-0.367145 1.71809,-0.73017 1.896029,-0.806712 0.149408,-0.06429 0.251389,-0.09578 0.444762,-0.08803 z m -25.026548,0.167945 c 0.01891,-0.0077 -0.04336,7.42e-4 -0.06023,0.01215 -0.0069,0.0047 -0.01305,0.01051 -0.01968,0.01563 -2.96e-4,6.24e-4 -8.9e-4,0.0012 -0.0012,0.0018 0.02704,-0.0098 0.05438,-0.01876 0.08106,-0.02954 z m -0.44013,0.646874 c 0.02378,0.0063 0.02736,0.0078 0.05907,0.01563 0.0124,0.003 -0.02393,-0.009 -0.03649,-0.01158 -0.0075,-0.0016 -0.01507,-0.0027 -0.02259,-0.004 z M 13.96466,14.595894 c 0.09525,-0.02704 0.180536,0.08759 0.2357,0.349209 0.03636,0.172424 0.170098,0.838998 0.297086,1.481382 0.126988,0.642382 0.274596,1.30959 0.327783,1.48254 0.298637,0.971008 0.500796,1.422909 0.770224,1.721136 0.291592,0.322748 0.297686,0.345327 0.198059,0.721001 -0.05658,0.21329 -0.21596,0.630682 -0.35442,0.927165 -0.138462,0.296487 -0.281371,0.640323 -0.317357,0.763857 -0.111583,0.383027 -1.291016,2.951256 -1.527131,3.32529 -0.123075,0.194966 -0.22412,0.397704 -0.22412,0.450554 0,0.05284 -0.06697,0.225232 -0.148832,0.383375 -0.08187,0.158142 -0.267442,0.611195 -0.412332,1.006509 -0.144889,0.39531 -0.353419,0.962538 -0.463872,1.260158 -0.110452,0.29762 -0.50772,1.166568 -0.882575,1.931356 -0.395694,0.807299 -0.877517,1.984492 -1.148969,2.806399 -0.3748271,1.13491 -0.5192122,1.459206 -0.7279491,1.634849 -0.1432129,0.1205 -0.3396094,0.402723 -0.4360752,0.627763 -0.1109234,0.258766 -0.2344356,0.412147 -0.3358882,0.416965 -0.088226,0.0041 -0.3826235,0.03859 -0.6544028,0.07644 -0.2717791,0.03786 -0.5607576,0.09775 -0.6422409,0.133197 -0.1888173,0.08219 -0.2893808,-0.07578 -0.1801053,-0.282608 0.046227,-0.0875 0.2690279,-0.907163 0.4951449,-1.821322 0.4546912,-1.838254 1.5450059,-5.264551 2.2122276,-6.951145 0.554797,-1.402406 1.517172,-4.419885 1.794684,-5.626703 0.08579,-0.37306 0.570985,-2.136151 0.817714,-2.971451 0.206257,-0.69827 0.217877,-0.891841 0.05212,-0.891841 -0.128552,0 -0.402202,0.72507 -0.626605,1.662066 -0.071,0.296486 -0.237227,0.943227 -0.369476,1.437371 -0.132246,0.494141 -0.362488,1.383555 -0.51194,1.976526 -0.149453,0.592971 -0.307538,1.115352 -0.351524,1.161129 -0.134548,0.140021 -0.407677,-0.190333 -0.57101,-0.691464 -0.205499,-0.6305 -0.3116018,-1.672715 -0.3092482,-3.030522 l 0.00176,-1.122907 0.3503652,-0.251338 c 0.192681,-0.138385 0.49702,-0.472749 0.676409,-0.743007 l 0.326043,-0.491671 0.425073,0.05675 0.42507,0.05617 0.194005,-0.412912 c 0.106764,-0.227137 0.194004,-0.445199 0.194004,-0.484141 0,-0.03894 0.212559,-0.291887 0.471982,-0.562323 0.347956,-0.362727 0.514086,-0.628392 0.634711,-1.013455 0.09533,-0.304335 0.20068,-0.473314 0.29593,-0.500358 z m 27.193026,0.08686 c -0.07437,-0.01603 -0.205008,0.09262 -0.205008,0.187635 0,0.05958 0.05187,0.05293 0.13725,-0.01795 0.07531,-0.06251 0.118177,-0.13201 0.09555,-0.154624 -0.0079,-0.0079 -0.01721,-0.01276 -0.02778,-0.01506 z m -0.323144,0.472561 c -0.04075,-0.04075 -0.292021,0.284125 -0.610393,0.758642 0.110296,-0.05136 0.219476,-0.10465 0.326624,-0.161574 0.0027,-0.0042 0.0037,-0.0069 0.0064,-0.01099 -0.0047,0.0016 -0.0049,0.0012 -0.0087,0.0024 0.003,-10e-4 0.0062,-0.002 0.0092,-0.0028 0.234191,-0.385472 0.311435,-0.550862 0.27682,-0.585488 z M 9.6513945,20.875263 c 0.00507,-7.41e-4 0.032046,0.408307 0.059646,0.909213 0.038644,0.701251 0.090018,0.964727 0.2229607,1.145495 0.094981,0.129124 0.1984308,0.395255 0.2299098,0.591278 0.03148,0.196024 0.143365,0.473269 0.24902,0.616182 l 0.192267,0.260022 -0.425072,1.405518 c -0.4288396,1.416925 -0.5954832,1.840395 -0.7632767,1.944094 -0.1144989,0.07077 -0.627483,-1.052781 -0.6295001,-1.378297 -0.00194,-0.331895 -0.1403086,-0.537834 -0.2727639,-0.40538 -0.075868,0.07599 -0.075682,0.151075 0.00116,0.294769 0.056738,0.106002 0.078325,0.270633 0.048067,0.366003 -0.033013,0.10403 0.072911,0.468495 0.2646571,0.910949 0.1757718,0.405612 0.3196724,0.801528 0.3196714,0.879681 0,0.07817 -0.1220376,0.500717 -0.2710264,0.938748 -0.2428813,0.714104 -1.5123512,5.121734 -1.6528002,5.738473 -0.030941,0.135889 -0.1079636,0.246703 -0.1708395,0.246703 -0.1800463,0 -0.604785,-0.953572 -0.8339289,-1.872284 -0.2627464,-1.053428 -0.3950091,-3.720164 -0.2235391,-4.506691 0.059261,-0.271776 0.1254593,-0.736662 0.1465166,-1.033146 0.021058,-0.296488 0.062603,-0.731249 0.092659,-0.965968 0.044648,-0.348737 0.029016,-0.426806 -0.08455,-0.426806 -0.1861159,0 -0.3249518,0.488887 -0.4215976,1.482539 -0.043246,0.444725 -0.1173869,1.090369 -0.1650483,1.434471 -0.04765,0.344105 -0.066654,1.193174 -0.041697,1.886765 0.052569,1.459928 0.3018895,2.575815 0.8049731,3.603847 0.1712178,0.34987 0.334787,0.779182 0.3631064,0.953804 0.04793,0.295364 0.030818,0.324933 -0.241492,0.419863 -0.1609965,0.05612 -0.3007691,0.10193 -0.3104067,0.10193 -0.053063,0 -0.3149398,-0.341677 -0.3156189,-0.41175 C 5.8223723,35.959757 5.4982887,35.58968 5.1024247,35.182357 4.4531912,34.514186 4.3892127,34.417278 4.4497622,34.1938 4.524252,33.918862 4.5228808,33.828329 4.4283337,32.733267 4.3920815,32.313248 4.3218153,31.891484 4.2725511,31.796258 4.2232879,31.701018 4.1267533,31.381099 4.0576987,31.085101 L 3.9320302,30.547098 4.2823959,30.045584 C 4.7904671,29.318343 5.157902,28.54289 5.284848,27.928911 5.3852449,27.443353 5.7801874,26.49344 5.9902126,26.232675 c 0.045532,-0.05653 0.111786,-0.278243 0.1470959,-0.492248 0.036097,-0.218755 0.1704455,-0.51344 0.3069321,-0.673514 0.1335243,-0.1566 0.4294293,-0.587832 0.6578771,-0.958438 0.2284476,-0.370605 0.6811166,-0.947295 1.0059265,-1.281008 0.5131232,-0.527194 0.5908615,-0.650909 0.5918578,-0.943382 0.00194,-0.485651 0.1714282,-0.74248 0.5825921,-0.883733 0.1976573,-0.0679 0.3637424,-0.124376 0.3688974,-0.125089 z m 50.8928185,0.853618 c 8.9e-4,-0.007 -0.0052,-0.0063 -0.01968,0.0052 -0.01432,0.01128 -0.02657,0.02482 -0.04054,0.03648 0.01115,0.0024 0.02342,0.005 0.03476,0.0075 0.01391,-0.02291 0.02458,-0.04158 0.02546,-0.04922 z m -1.813214,4.224662 c -0.0016,0.04181 -0.003,0.05327 -0.0019,0.21659 -0.0046,0.01488 -0.0067,0.02231 -0.01099,0.03647 0.103379,0.03605 0.217136,0.07511 0.293033,0.103664 2.000041,0.753167 2.812741,1.032567 3.006198,1.032567 0.113215,0 0.370457,0.05797 0.572168,0.129143 0.201714,0.07117 0.619772,0.152688 0.928902,0.181264 0.309131,0.02858 0.705448,0.08979 0.88026,0.136093 0.403451,0.10687 1.476814,0.284543 1.897188,0.313882 0.177001,0.01236 0.590834,0.07595 0.919638,0.141304 0.528464,0.105046 0.809075,0.08518 0.67583,-0.04806 -0.118199,-0.118231 -1.546089,-0.406313 -3.084928,-0.622555 -2.163162,-0.303977 -3.316469,-0.574114 -4.672316,-1.095111 -0.402703,-0.154742 -0.924956,-0.348329 -1.403201,-0.525257 z m 9.601763,2.28867 c -0.223665,-0.0019 -0.195066,0.169484 0.0446,0.265815 0.301928,0.121367 0.517151,0.108004 0.517151,-0.03185 0,-0.123343 -0.259924,-0.231611 -0.561743,-0.233964 z m -32.835365,0.407694 c -0.0043,0.0042 -0.0094,0.0079 -0.01391,0.01215 2.98e-4,-1.2e-5 8.92e-4,1.1e-5 0.0012,0 -0.0024,0.0024 0.01692,-0.01625 0.01275,-0.01215 z m 22.282692,1.129856 c -0.05807,0.0504 -0.117838,0.09906 -0.173736,0.151729 0.04469,-0.03011 0.08864,-0.06148 0.133776,-0.09093 0.01957,-0.01275 -0.03029,0.03677 -0.05038,0.04865 -0.02188,0.01294 -0.03525,0.01948 -0.0666,0.03707 0.04815,-0.02574 0.09469,-0.05462 0.144778,-0.07644 0.06676,-0.0291 -0.100917,0.09084 -0.205003,0.156363 1.054404,0.321224 2.276559,0.648113 2.841725,0.746479 0.296749,0.05163 0.680932,0.135093 0.853622,0.185319 0.790589,0.229966 3.003735,0.627203 3.807114,0.683358 0.742571,0.05191 0.881701,0.04142 0.84667,-0.06429 -0.03017,-0.09101 -0.342129,-0.155118 -1.113065,-0.229327 -0.588982,-0.0567 -1.39416,-0.182542 -1.789471,-0.279713 -0.698469,-0.171693 -1.141764,-0.271253 -2.919909,-0.654403 -0.708886,-0.152752 -1.412815,-0.339965 -2.30952,-0.613866 z m -0.173736,0.151729 c -0.0075,0.005 -0.01509,0.0099 -0.02259,0.01507 0.0044,-0.0024 0.0093,-0.0043 0.01391,-0.007 0.0029,-0.0026 0.0059,-0.0054 0.0087,-0.0081 z m -0.02259,0.01507 c -0.02531,0.01403 -0.05069,0.02797 -0.07586,0.04228 2.98e-4,1.35e-4 5.93e-4,5.94e-4 0.0012,5.94e-4 0.0389,-0.02126 0.03125,-0.01758 0.0666,-0.03707 0.0027,-0.0019 0.0053,-0.0038 0.0082,-0.0059 z m -0.0082,0.0059 c -0.01931,0.01307 -0.0386,0.02628 -0.05792,0.03938 0.0063,0.0019 0.01118,0.0038 0.01737,0.0059 0.0205,-0.0185 0.04082,-0.03715 0.06081,-0.05618 -0.01024,0.0057 -0.0095,0.0051 -0.02027,0.011 z M 26.493212,31.12401 c 0.103006,-0.01051 0.174314,0.01227 0.174314,0.07182 0,0.04365 -0.09093,0.10341 -0.202111,0.133198 -0.111182,0.02978 -0.282807,0.05319 -0.381638,0.05213 -0.159356,-0.0019 -0.154594,-0.01642 0.04459,-0.1303 0.127001,-0.07259 0.261829,-0.116236 0.364844,-0.126825 z m 36.485543,0.524102 v 5.93e-4 c -0.0095,-1.94e-4 -0.01447,0.0039 -0.01447,0.01391 0,0.07776 0.304795,0.436549 0.676991,0.797445 0.372188,0.3609 0.703996,0.629138 0.737212,0.59591 0.03318,-0.03323 -0.271565,-0.392022 -0.676987,-0.797442 C 63.33568,31.89274 63.04555,31.64949 62.978767,31.648138 Z m -29.71513,0.381622 c -0.04458,0.09161 -0.0904,0.181845 -0.138408,0.275083 0.20295,0.103099 0.37906,0.204268 0.504989,0.299983 0.261606,0.198841 0.923869,0.493002 1.751828,0.778334 0.222368,0.07664 0.738321,0.287958 1.146075,0.469662 0.407726,0.181745 0.832256,0.314883 0.943383,0.295352 0.161104,-0.02831 0.09279,-0.08637 -0.337047,-0.284928 -0.296484,-0.136956 -0.793731,-0.368182 -1.104954,-0.513676 -0.311221,-0.145492 -0.907259,-0.401666 -1.324443,-0.569853 -0.417181,-0.168183 -0.939596,-0.430751 -1.16113,-0.583171 -0.0694,-0.04776 -0.178498,-0.108368 -0.280293,-0.166786 z m 16.631668,1.22657 c -0.115653,0.06178 -0.219085,0.112816 -0.316778,0.158102 0.586825,0.231839 1.526365,0.536882 2.081928,0.656717 0.478567,0.103233 1.085542,0.26284 1.348183,0.35442 0.806013,0.281043 1.099519,0.370155 1.971895,0.599966 0.462666,0.121884 1.103469,0.313417 1.42405,0.42507 0.544593,0.189682 0.608238,0.241397 0.964809,0.787022 0.209898,0.321193 0.524145,0.735494 0.698414,0.920797 0.297582,0.316428 0.584326,0.440904 0.584329,0.253653 -3e-6,-0.04582 -0.09093,-0.157183 -0.202113,-0.247284 -0.348668,-0.282572 -1.055727,-1.120691 -1.055727,-1.251472 0,-0.07855 0.09828,-0.125089 0.264653,-0.125089 0.373666,0 2.821939,0.573653 3.439959,0.806132 0.5082,0.191162 0.69753,0.18416 0.697258,-0.02546 C 61.79595,36.421765 60.054259,35.92586 58.427427,35.609859 57.686216,35.46588 56.83715,35.268619 56.540661,35.17147 55.565574,34.851948 55.0224,34.703901 54.339438,34.571502 53.660562,34.439895 51.733629,33.872346 50.071921,33.31424 c -0.06077,-0.0204 -0.116215,-0.03778 -0.176628,-0.05792 z m -33.273719,1.479602 c 0.148621,-0.0063 0.295046,0.02508 0.554796,0.08919 0.303538,0.07492 0.935502,0.305117 1.404937,0.511361 0.469436,0.206242 1.035481,0.439635 1.257842,0.518889 0.222366,0.07925 0.60655,0.26482 0.853619,0.41233 0.247071,0.147506 0.934743,0.508831 1.527711,0.803236 0.592971,0.294406 1.360763,0.705414 1.706659,0.913269 0.345899,0.207855 1.275662,0.713277 2.066289,1.122905 0.790627,0.409633 1.629934,0.881542 1.864757,1.048783 0.234831,0.16723 0.505333,0.304038 0.601126,0.304034 0.0958,0 0.195787,0.03512 0.22238,0.0782 0.0266,0.04302 0.172181,0.102882 0.323728,0.133199 0.151543,0.03031 0.405156,0.150946 0.563481,0.267551 0.158321,0.116605 0.570843,0.366477 0.916742,0.555374 0.345898,0.188891 0.750546,0.433251 0.898789,0.543211 0.148241,0.10997 0.592659,0.367193 0.987973,0.571589 0.395313,0.20435 0.901126,0.470522 1.123489,0.591277 0.222364,0.120752 0.469763,0.220347 0.550162,0.221804 0.190018,0.0031 2.194697,0.967102 2.304307,1.107851 0.04618,0.05929 0.127023,0.269694 0.179526,0.467347 0.251978,0.948725 0.845615,2.214442 0.976971,2.083085 0.01598,-0.01598 -0.132067,-0.490164 -0.328938,-1.053995 -0.381662,-1.093085 -0.398872,-1.164026 -0.28377,-1.164026 0.09092,0 1.780507,0.941547 2.395231,1.334865 0.246311,0.157595 0.59193,0.325415 0.768488,0.372954 0.176556,0.04754 0.642419,0.289742 1.034882,0.537998 0.392467,0.248267 0.89892,0.536867 1.125805,0.641662 l 0.412908,0.190532 -0.04228,0.870413 c -0.03118,0.646989 -0.0032,1.001366 0.107715,1.383509 0.08215,0.282616 0.124589,0.554047 0.09439,0.602864 -0.03019,0.0489 -0.26214,0.07778 -0.515415,0.06429 -0.431539,-0.02298 -0.471846,-0.0064 -0.644556,0.264079 -0.101372,0.158685 -0.22559,0.289744 -0.27566,0.291874 -0.311817,0.01186 -2.075651,-1.489523 -2.164163,-1.842172 -0.05642,-0.224819 -0.365329,-0.55026 -0.445918,-0.469663 -0.141576,0.141569 0.295055,0.745808 1.027353,1.421154 0.451101,0.416019 0.82061,0.784978 0.82061,0.820029 0,0.03505 -0.172209,0.07635 -0.38222,0.09151 -0.344371,0.0249 -0.390151,0.05661 -0.467925,0.32083 -0.06673,0.226705 -0.155684,0.311604 -0.392642,0.377006 -0.168423,0.04649 -0.383576,0.15515 -0.47835,0.240912 -0.146967,0.133022 -0.215647,0.14023 -0.467347,0.04922 -0.162311,-0.0587 -0.381687,-0.107139 -0.487038,-0.107139 -0.224721,0 -0.64919,0.179538 -0.64919,0.274502 0,0.145315 -0.283189,0.159907 -0.592438,0.0307 -0.3082,-0.128762 -0.33833,-0.125882 -0.524101,0.04865 -0.110283,0.103611 -0.31818,0.185319 -0.471401,0.185319 -0.150748,0 -0.373567,0.07797 -0.494567,0.173155 -0.218507,0.171862 -0.222082,0.171695 -0.573324,-0.03997 -0.825902,-0.497659 -0.876308,-0.517982 -1.034305,-0.419282 -0.109397,0.06837 -0.262974,0.0622 -0.544369,-0.02085 -0.437782,-0.128972 -0.865951,-0.0556 -1.036622,0.177789 -0.05808,0.07944 -0.161802,0.130808 -0.230487,0.114087 -0.119863,-0.02914 -1.276005,-1.253576 -1.805109,-1.911667 -0.139901,-0.174005 -0.328408,-0.469254 -0.418701,-0.65614 -0.0903,-0.18688 -0.253732,-0.420083 -0.363107,-0.51831 -0.240581,-0.216066 -0.911038,-1.080507 -1.079476,-1.39162 -0.140038,-0.258634 -0.264493,-1.168079 -0.159835,-1.168079 0.03854,0 0.303719,0.129016 0.588962,0.286666 0.285246,0.157659 0.801331,0.421951 1.147231,0.587225 1.521285,0.726889 1.415017,0.64253 1.545086,1.224833 0.180742,0.809161 0.51701,1.389054 1.223097,2.107986 1.188471,1.210081 1.284719,1.015681 0.113504,-0.229333 -0.804539,-0.855225 -1.268264,-1.848993 -0.953226,-2.0437 0.09875,-0.06103 0.684507,0.219548 1.216147,0.582589 0.197653,0.134971 1.087071,0.619972 1.976528,1.077738 0.889449,0.457753 1.7139,0.907838 1.831746,1.000134 0.253871,0.198821 0.369477,0.213844 0.369477,0.04633 0,-0.148495 -0.894278,-0.73105 -1.75183,-1.14086 -0.345868,-0.165338 -1.175052,-0.622132 -1.842142,-1.015227 -2.175779,-1.282113 -2.374578,-1.391774 -2.874737,-1.586202 -0.657346,-0.255532 -2.050834,-1.006528 -2.830146,-1.524816 -0.345902,-0.23004 -1.110609,-0.671781 -1.699709,-0.982182 -1.428204,-0.752515 -1.652912,-0.904826 -2.699845,-1.827696 -0.492772,-0.434384 -1.459175,-1.179453 -2.147367,-1.655697 -0.688192,-0.476245 -1.43784,-1.031287 -1.66554,-1.233518 -0.227699,-0.20223 -0.676409,-0.566724 -0.997241,-0.810184 -0.320832,-0.243474 -1.09697,-0.923275 -1.72519,-1.51034 -0.628222,-0.587056 -1.518215,-1.319251 -1.977106,-1.627319 -1.209815,-0.812192 -1.678463,-1.169721 -1.654538,-1.261896 0.02743,-0.105607 0.628587,-0.281479 1.583885,-0.462713 0.420021,-0.07968 1.020727,-0.227212 1.334866,-0.327782 0.268821,-0.08606 0.420073,-0.129341 0.568692,-0.135513 z m -4.206707,1.084685 c 0.116794,0.0112 0.225349,0.07035 0.427967,0.197481 0.2161,0.135575 0.61543,0.41434 0.887208,0.619076 0.271777,0.204737 0.777009,0.539217 1.122909,0.743586 0.380329,0.22471 1.027883,0.762669 1.638323,1.360346 0.555176,0.543573 1.323101,1.223463 1.706079,1.510915 0.382975,0.287456 1.105424,0.845736 1.605891,1.241049 0.500466,0.395319 1.399374,1.055779 1.997376,1.467485 0.598006,0.411704 1.327737,0.957283 1.621529,1.212669 0.293788,0.255389 0.755206,0.626433 1.025614,0.824085 0.480954,0.351558 0.492755,0.370288 0.529893,0.865781 0.02631,0.350744 0.146671,0.729803 0.392065,1.232939 0.324874,0.66608 0.489354,0.879914 0.489354,0.636452 0,-0.05214 -0.121626,-0.379591 -0.269871,-0.727953 -0.304149,-0.714744 -0.356599,-1.243942 -0.12335,-1.243942 0.14844,0 1.312368,0.607097 1.76341,0.919638 0.206705,0.143237 0.246703,0.23623 0.246703,0.569852 0,0.484877 0.779176,2.073653 1.37251,2.798873 1.171939,1.43244 1.591092,1.915333 1.889659,2.17748 0.182459,0.160209 0.331835,0.347932 0.331835,0.416964 0,0.128203 -0.07934,0.148344 -0.627186,0.162152 -0.271099,0.0069 -0.33428,0.05372 -0.476034,0.352683 l -0.163311,0.344577 -0.467347,-0.0637 c -0.257006,-0.03516 -0.560854,-0.0992 -0.67525,-0.142462 -0.114401,-0.04331 -0.331036,-0.07876 -0.481247,-0.07876 -0.154815,0 -0.445971,-0.116504 -0.672356,-0.269289 -0.650419,-0.438968 -0.923878,-0.360138 -1.384668,0.40017 h 5.94e-4 c -0.265393,0.437878 -0.49238,0.599214 -0.638188,0.453449 -0.05175,-0.05176 -0.725958,-0.204608 -1.37772,-0.312144 -0.247069,-0.04076 -0.601759,-0.103719 -0.788178,-0.140147 -0.241858,-0.04722 -0.383822,-0.0296 -0.494565,0.06196 -0.09412,0.07782 -0.3199,0.121611 -0.574485,0.11119 -0.399978,-0.01642 -0.531708,-0.08319 -1.365559,-0.693783 -0.103264,-0.07558 -0.424854,0.0287 -0.705944,0.229331 -0.132879,0.09485 -0.211577,0.05556 -0.545528,-0.272186 -0.300569,-0.294986 -0.450241,-0.37842 -0.653244,-0.363685 -0.144876,0.01051 -0.351056,-0.02858 -0.458662,-0.08687 -0.107605,-0.05798 -0.259738,-0.08143 -0.337625,-0.05155 -0.169133,0.06491 -0.861013,-0.243944 -1.044149,-0.466186 -0.2606,-0.316243 -1.00461,-0.846093 -1.187767,-0.846093 -0.103494,0 -0.366583,0.08568 -0.584329,0.191109 l -0.395539,0.19169 -0.418702,-0.449975 c -0.539976,-0.581005 -0.691267,-0.652087 -1.392197,-0.652087 -0.571017,0 -0.58297,-0.0046 -0.679883,-0.28261 -0.05425,-0.155619 -0.09846,-0.3955 -0.09846,-0.532787 0,-0.162632 -0.0826,-0.314166 -0.23686,-0.435495 -0.276179,-0.217263 -0.54616,-0.233886 -0.791073,-0.04865 -0.09593,0.07254 -0.240113,0.132038 -0.320251,0.132038 -0.17685,0 -0.524013,-0.361034 -0.843195,-0.876205 -0.130116,-0.210006 -0.2960124,-0.381638 -0.3683193,-0.381638 -0.072304,0 -0.2557937,-0.137632 -0.4082768,-0.305195 C 9.2620482,47.354614 8.9068601,47.114146 8.625769,46.987655 8.1956756,46.794115 8.0674112,46.678329 7.8155843,46.255652 7.5850153,45.868658 7.4545771,45.740898 7.245733,45.699121 7.0374314,45.657464 6.9361175,45.559253 6.8096577,45.275784 6.7191645,45.072919 6.4812574,44.7491 6.2809237,44.555942 6.0805944,44.362788 5.8928835,44.120108 5.8639593,44.016783 5.8350232,43.91346 5.7581017,43.707526 5.6925407,43.55928 5.5744692,43.292282 5.3849712,42.43193 5.1394836,41.044176 5.0695606,40.648862 4.9680361,40.12936 4.9136278,39.889994 L 4.814599,39.454498 5.3120604,38.721915 c 0.2736076,-0.403029 0.52589,-0.846353 0.5605858,-0.985079 0.077549,-0.309992 0.3304973,-0.483772 0.8153971,-0.561165 0.3252606,-0.0519 0.4052247,-0.02757 0.6642472,0.203849 l 0.2941915,0.263498 0.02027,2.28404 c 0.011564,1.286409 0.063384,2.441891 0.1181396,2.64425 0.053468,0.197651 0.1196286,0.702883 0.1470959,1.122907 0.053132,0.812708 0.2121951,1.475453 0.5275759,2.195432 0.2252413,0.514216 0.649378,1.128702 0.7789121,1.128702 0.1692786,0 0.088472,-0.280039 -0.2698682,-0.93296 C 8.4896574,45.212716 8.2806821,44.525903 8.2145967,43.60445 8.1844736,43.184433 8.1219296,42.497334 8.0756086,42.077319 c -0.1177421,-1.0665 -0.1174015,-3.385527 5.93e-4,-3.605582 0.087524,-0.163529 0.2085891,-0.06547 1.3701908,1.110168 0.7007696,0.709232 1.7902516,1.772994 2.4212896,2.363954 l 1.14723,1.074842 -0.05443,0.452872 c -0.06376,0.527304 0.07638,1.080651 0.613285,2.421869 0.370984,0.926711 0.604216,1.28005 0.776017,1.173868 0.149543,-0.09243 0.120205,-0.178625 -0.09555,-0.276817 -0.179985,-0.08191 -0.35746,-0.471039 -0.612706,-1.346449 -0.04322,-0.148241 -0.141845,-0.468001 -0.219485,-0.710575 -0.192802,-0.602207 -0.189031,-1.131019 0.0082,-1.131019 0.08221,0 0.670505,0.515097 1.307067,1.144917 1.129096,1.117185 1.156224,1.153092 1.103799,1.46343 -0.02956,0.174965 -0.01519,0.498738 0.03185,0.719262 0.04705,0.220528 0.111325,0.623685 0.143043,0.895894 0.06101,0.523751 0.176243,0.801303 0.286662,0.690888 0.03663,-0.03663 -0.0062,-0.42395 -0.09498,-0.861146 -0.239941,-1.181938 -0.01815,-1.535236 0.528154,-0.84146 0.56291,0.714884 1.537772,1.742425 1.801056,1.89777 0.151602,0.08945 0.472766,0.392928 0.713473,0.674671 l 0.437811,0.512517 -0.213694,0.287821 c -0.154947,0.209253 -0.213994,0.409329 -0.216011,0.729109 -0.0039,0.608571 0.181215,0.63317 0.260603,0.03476 0.05791,-0.436583 0.245398,-0.789918 0.41928,-0.789918 0.03913,0 0.617777,0.54616 1.285641,1.213252 0.667862,0.667095 1.235904,1.212674 1.262476,1.212674 0.02656,0 0.04864,-0.04643 0.04864,-0.103089 0,-0.199156 -0.683055,-0.944962 -2.288092,-2.499471 -2.200036,-2.13069 -2.627903,-2.565235 -3.147017,-3.192681 -0.411768,-0.497701 -3.094539,-3.20374 -5.20163,-5.247381 C 11.034405,40.708315 8.5455686,38.013941 8.0947314,37.428747 7.9713907,37.268656 7.891998,37.080771 7.9186799,37.011205 c 0.029821,-0.07771 0.3024557,-0.167234 0.7065229,-0.231648 0.3617426,-0.05767 0.8397366,-0.165765 1.0621016,-0.240334 0.2223619,-0.07457 0.7679446,-0.23238 1.2126716,-0.350945 0.444727,-0.118576 0.975163,-0.261007 1.179083,-0.316198 0.08498,-0.02301 0.153149,-0.03923 0.212535,-0.0475 0.04454,-0.0063 0.08441,-0.0079 0.123354,-0.004 z m 35.241019,7.592228 c -0.03386,0.25156 -0.106569,0.489891 -0.253073,0.758642 0.127619,0.406942 0.427701,0.80531 1.030248,1.380037 0.788942,0.752522 0.744421,0.436627 -0.0527,-0.373531 -0.493778,-0.501852 -0.686591,-0.765947 -0.730848,-1.001871 -0.03301,-0.176191 -0.03742,-0.343022 -0.0098,-0.370637 0.0276,-0.0276 0.384311,0.09715 0.79223,0.27682 0.407963,0.179691 0.903247,0.366775 1.100902,0.415806 0.739364,0.183515 1.629664,0.440297 2.010117,0.579695 0.476947,0.174779 0.550162,0.178003 0.550162,0.02546 0,-0.147146 -0.785371,-0.478025 -1.417101,-0.597069 -0.260754,-0.04914 -0.543774,-0.125714 -0.628921,-0.170262 -0.08515,-0.04455 -0.371307,-0.126487 -0.63587,-0.18242 -0.264572,-0.05589 -1.001962,-0.36449 -1.638905,-0.685095 -0.04302,-0.02165 -0.07398,-0.03454 -0.1164,-0.05559 z m -9.915066,4.166168 c -0.108244,0.01349 0.09308,0.467329 0.363688,0.764436 0.101073,0.110965 0.201842,0.183268 0.224115,0.160993 0.04995,-0.04996 -0.399242,-0.826528 -0.521781,-0.902262 -0.02875,-0.01779 -0.05055,-0.02509 -0.06602,-0.02316 z m 5.257805,0.697258 c 0.239028,0 1.855672,0.539549 2.760651,0.921376 0.296489,0.125086 0.652398,0.272334 0.791075,0.327199 0.333091,0.131835 0.227507,0.279137 -0.200374,0.279137 -0.205915,0 -0.432872,0.07132 -0.570431,0.179526 -0.12564,0.09884 -0.250738,0.179523 -0.278554,0.179523 -0.02782,0 -0.235264,0.129713 -0.4604,0.288402 -0.438321,0.308985 -0.91948,0.366041 -1.313435,0.155204 -0.167773,-0.08979 -0.218856,-0.07634 -0.344575,0.09035 -0.145426,0.19279 -0.149494,0.188558 -0.293614,-0.281451 -0.191477,-0.624451 -0.358513,-1.757016 -0.290717,-1.970737 0.02944,-0.09274 0.119421,-0.168523 0.200374,-0.168523 z m -26.717571,0.66135 c -0.02276,0.0075 -0.03532,0.04745 -0.03532,0.12451 0,0.107561 0.08352,0.419574 0.185895,0.693204 0.106379,0.284318 0.241138,0.497463 0.314461,0.497463 0.161804,0 0.164326,0.02387 -0.06601,-0.598228 -0.172707,-0.466408 -0.330733,-0.739465 -0.399011,-0.716949 z"
         style="fill:#4a244a;fill-opacity:1;stroke-width:0.44266483"
         id="path3168" />
    </g>
  </g>
</svg>
