<?xml version="1.0" encoding="UTF-8" standalone="no"?>
<!-- Created with Inkscape (http://www.inkscape.org/) -->

<svg
   xmlns:dc="http://purl.org/dc/elements/1.1/"
   xmlns:cc="http://creativecommons.org/ns#"
   xmlns:rdf="http://www.w3.org/1999/02/22-rdf-syntax-ns#"
   xmlns:svg="http://www.w3.org/2000/svg"
   xmlns="http://www.w3.org/2000/svg"
   xmlns:sodipodi="http://sodipodi.sourceforge.net/DTD/sodipodi-0.dtd"
   xmlns:inkscape="http://www.inkscape.org/namespaces/inkscape"
   width="256"
   height="256"
   viewBox="0 0 256 256"
   version="1.1"
   id="SVGRoot"
   inkscape:version="0.92.4 (unknown)"
   sodipodi:docname="logo.svg"
   inkscape:export-filename="/home/pesvut/GoogleDrive/Coding/society-page/public/favicon.png"
   inkscape:export-xdpi="768.00006"
   inkscape:export-ydpi="768.00006">
  <sodipodi:namedview
     id="base"
     pagecolor="#ffffff"
     bordercolor="#666666"
     borderopacity="1.0"
     inkscape:pageopacity="0.0"
     inkscape:pageshadow="2"
     inkscape:zoom="1.4142136"
     inkscape:cx="-2.5023743"
     inkscape:cy="224.05088"
     inkscape:document-units="px"
     inkscape:current-layer="layer3"
     showgrid="false"
     inkscape:window-width="1853"
     inkscape:window-height="1025"
     inkscape:window-x="67"
     inkscape:window-y="27"
     inkscape:window-maximized="1"
     inkscape:grid-bbox="true">
    <sodipodi:guide
       inkscape:locked="false"
       id="guide1382"
       orientation="0,1122.5197"
       position="0,0" />
    <sodipodi:guide
       inkscape:locked="false"
       id="guide1384"
       orientation="-1587.4016,0"
       position="297,0" />
    <sodipodi:guide
       inkscape:locked="false"
       id="guide1386"
       orientation="0,-1122.5197"
       position="297,420" />
    <sodipodi:guide
       inkscape:locked="false"
       id="guide1388"
       orientation="1587.4016,0"
       position="0,420" />
    <sodipodi:guide
       position="0,0"
       orientation="0,16"
       id="guide3090"
       inkscape:locked="false" />
    <sodipodi:guide
       position="256,127"
       orientation="-16,0"
       id="guide3092"
       inkscape:locked="false" />
    <sodipodi:guide
       position="0,16"
       orientation="16,0"
       id="guide3096"
       inkscape:locked="false" />
  </sodipodi:namedview>
  <defs
     id="defs823" />
  <metadata
     id="metadata826">
    <rdf:RDF>
      <cc:Work
         rdf:about="">
        <dc:format>image/svg+xml</dc:format>
        <dc:type
           rdf:resource="http://purl.org/dc/dcmitype/StillImage" />
        <dc:title></dc:title>
      </cc:Work>
    </rdf:RDF>
  </metadata>
  <g
     inkscape:label="Layer 1"
     inkscape:groupmode="layer"
     id="layer1"
     style="display:inline"
     transform="translate(0,240)">
    <g
       id="g1377"
       transform="matrix(1.6174431,0,0,1.5996814,-28.740348,-167.05908)"
       style="fill:#008000;stroke:#008000;stroke-width:0.11748333;stroke-miterlimit:4;stroke-dasharray:none;stroke-opacity:1">
      <g
         style="fill:#008000;fill-opacity:1;stroke:#008000;stroke-width:0.36367878;stroke-linecap:round;stroke-linejoin:round;stroke-miterlimit:4;stroke-dasharray:none;stroke-opacity:1"
         transform="matrix(1.8611252,0,0,1.8620089,17.150733,-8.0559792)"
         id="g977">
        <g
           id="layer4"
           inkscape:label="texture"
           style="display:none;opacity:1;fill:#008000;fill-opacity:1;stroke:#008000;stroke-width:0.36367878;stroke-linecap:round;stroke-linejoin:round;stroke-miterlimit:4;stroke-dasharray:none;stroke-opacity:1">
          <path
             style="opacity:1;fill:#008000;fill-opacity:1;stroke:#008000;stroke-width:0.36367878;stroke-linecap:round;stroke-linejoin:round;stroke-miterlimit:4;stroke-dasharray:none;stroke-opacity:1"
             d="M 4.2062829e-6,-2.2560941e-6 H 85.000004 V 54.999998 H 4.2062829e-6 Z"
             id="rect2980"
             inkscape:connector-curvature="0" />
        </g>
        <g
           id="layer5"
           inkscape:label="logo"
           style="display:inline;fill:#008000;fill-opacity:1;stroke:#008000;stroke-width:0.36367878;stroke-linecap:round;stroke-linejoin:round;stroke-miterlimit:4;stroke-dasharray:none;stroke-opacity:1" />
        <g
           id="layer1-9"
           inkscape:label="Layer 1"
           style="display:inline;fill:#008000;fill-opacity:1;stroke:#008000;stroke-width:0.36367878;stroke-linecap:round;stroke-linejoin:round;stroke-miterlimit:4;stroke-dasharray:none;stroke-opacity:1">
          <g
             id="g4279"
             style="fill:#008000;fill-opacity:1;stroke:#008000;stroke-width:0.36367878;stroke-linecap:round;stroke-linejoin:round;stroke-miterlimit:4;stroke-dasharray:none;stroke-opacity:1">
            <path
               id="path3168"
               transform="matrix(5.3534029,0,0,5.4086627,-0.65443927,-20.157081)"
               style="fill:#008000;fill-opacity:1;stroke:#008000;stroke-width:0.0675862;stroke-linecap:round;stroke-linejoin:round;stroke-miterlimit:4;stroke-dasharray:none;stroke-opacity:1"
               d="M 8.0898438,4.5566406 C 7.8870712,4.5532926 7.539683,4.7529534 7.4140625,4.6953125 7.2261525,4.7440624 7.0965497,4.4657235 6.9101562,4.8320312 6.7462264,4.489825 6.4377257,4.9801568 6.2148438,4.96875 6.0804674,5.0602384 5.8951015,5.0488886 5.7675781,4.9355469 5.7096977,5.2121646 5.4946661,5.1976652 5.3945312,5.1484375 5.0604728,5.4193529 4.7423387,5.3207535 4.6074219,5.7421875 4.391251,5.2924126 4.3041555,6.2982328 4.1308594,5.7558594 3.9810412,5.985914 3.721803,6.3945469 3.5039062,6.265625 3.4964128,6.6566037 3.1858477,6.8100485 2.9921875,7.1210938 2.7535215,7.2487609 2.5500279,7.3938876 2.5820312,7.7207031 2.3497727,7.7374097 2.2151232,8.2800299 1.96875,8.5175781 1.833884,8.971047 1.5357788,9.389926 1.6835938,9.890625 c 0.081557,0.306022 0.4508349,0.557239 -0.1269532,0.429687 -0.3483445,-0.08915 -1.04492114,-0.5515719 -1.06835935,0.08594 0.29594025,0.434697 0.26011896,-0.4604021 0.63085935,-0.01758 0.2569544,0.249139 1.1250353,-0.07854 0.671875,0.447266 0.030639,0.56627 0.1703128,1.024966 0.6171875,1.316406 0.4497691,0.316024 0.6954982,0.466895 1.1191407,0.71289 0.2202906,-0.02654 0.5703999,0.159409 0.8359374,0.296875 0.2587452,-0.01068 0.7207955,0.132431 1.0488282,0.08203 0.1718916,-0.246632 0.5640376,0.106034 0.8300781,-0.13086 0.1454739,0.02592 0.2984484,-0.03312 0.4726563,-0.02539 -0.00102,-0.01384 -0.00473,-0.02768 -0.00391,-0.04102 2.063e-4,-0.0033 0.00159,-0.0065 0.00195,-0.0098 -0.03253,-0.0063 -0.065259,-0.0054 -0.097656,-0.01563 -0.209528,0.03448 -0.4379427,-0.04429 -0.5839844,0.121094 -0.2429526,0.0585 -0.5707253,-0.253069 -0.7304688,0.07422 C 4.8119992,13.139303 4.4421971,13.103786 3.9960938,12.947266 3.6609938,12.738599 3.2216451,12.775367 3.0078125,12.396484 2.6271365,12.314234 2.1819422,11.874145 1.984375,11.476562 1.8593488,11.129128 1.7575386,10.585125 2.2265625,10.474609 c 0.1553031,0.243433 0.4351598,0.390054 0.65625,0.646485 0.3734529,0.105012 -1.0191335,-0.777316 -0.2167969,-0.751953 0.5786077,-0.355736 1.0066631,0.313993 1.4199219,0.613281 0.4355407,0.404739 1.1190255,0.616097 1.2558594,1.238281 -0.1993218,-0.369676 0.069972,-0.333107 0.34375,-0.128906 0.4118698,0.151134 0.6172576,0.4433 0.8398437,0.794922 C 6.704552,13.016434 6.2734073,12.571166 6.2617188,12.373047 6.1592531,12.216966 5.791532,12.156078 5.6152344,11.990234 4.9971249,11.669439 4.470228,11.20539 3.9277344,10.775391 3.7333223,10.515951 2.8557323,10.161761 3.6230469,10.123047 4.2032134,10.073512 4.8060952,9.4882613 5.3476562,9.8691406 5.5755276,9.7886975 5.041231,9.7287868 5.1601562,9.53125 4.6447522,9.6717844 4.1148742,9.896099 3.609375,9.9882812 3.908823,9.4000525 4.2200891,8.8153836 4.484375,8.2109375 4.1828733,8.6811406 3.9231221,9.3151246 3.6152344,9.8378906 3.2941859,10.262442 2.7744465,10.138161 2.3046875,10.296875 2.3272175,9.8455254 2.5654521,9.2800555 2.7265625,8.8027344 2.8567302,8.4169266 3.2190413,7.4255266 3.125,7.3164062 2.9387207,7.9496633 2.8672474,8.369501 2.6210938,8.9199219 2.2817849,8.2284807 2.7176906,9.1352278 2.4746094,9.3671875 2.3765884,9.7624789 2.1558328,10.792202 1.7929688,9.9824219 1.6443333,9.5036777 1.7999296,9.1499751 2.0195312,8.71875 2.1368635,8.33698 2.6620332,7.7694637 2.7148438,7.7617188 2.6449635,7.5294257 2.8287195,7.1872823 3.0820312,7.2402344 3.2373192,6.9228409 3.4548159,6.6974126 3.5703125,6.4492188 3.7683848,6.2765084 3.9667807,6.1547593 4.1484375,5.9628906 4.4363082,5.9900848 4.6312253,5.6893068 4.8808594,5.5996094 5.144397,5.1869676 5.6283942,5.3762189 5.8789062,5.1171875 6.2567644,5.0896819 6.7671518,4.8066454 6.6835938,4.96875 6.7762846,4.6352344 6.9162486,5.1098617 7.0898438,4.7851562 7.151062,4.8448787 7.2404117,4.7176222 7.4277344,4.765625 7.540803,4.8257426 8.0660584,4.5618064 8.125,4.6875 7.9807908,4.9813919 7.7006647,5.359176 7.6621094,5.1113281 7.7643888,5.752068 7.9493709,4.5807745 8.359375,4.7675781 8.415676,4.7388551 8.458559,4.726124 8.4980469,4.71875 c 1.402e-4,-0.013019 -2.323e-4,-0.02605 0,-0.039063 C 8.3812613,4.7099145 8.2752996,4.6943792 8.2304688,4.6445312 8.2083978,4.5811667 8.1574343,4.557756 8.0898438,4.5566406 Z M 5.7597656,5.2070312 C 5.6302584,5.5154804 5.4952955,5.8039814 5.359375,6.0957031 5.377136,6.0895331 5.395302,6.0837731 5.414062,6.0800781 5.542544,5.7931571 5.6668864,5.5046732 5.7597656,5.2070312 Z m 9.8710934,0.054688 c -0.03598,-0.018883 -0.123489,-0.012805 -0.291015,0.033203 -0.343706,0.091139 -0.605767,0.117593 -0.951172,0.1992187 -0.429203,0.095879 -0.605223,0.036652 -1.003906,0.00195 -0.243053,0.06737 -0.08084,-0.3402585 -0.44336,-0.039063 -0.03401,-0.2294399 -0.186021,-0.1242661 -0.300781,-0.1035156 -0.0013,0.00312 -0.0065,0.019637 -0.0078,0.023437 -6.87e-4,0.00262 -0.0013,0.00519 -0.002,0.00781 -0.0063,0.024876 -0.01171,0.049582 -0.01758,0.074219 0.04537,0.012054 0.100743,0.00581 0.195313,-0.076172 0.217557,0.2361687 0.595438,0.1055474 0.849609,0.2734375 0.647474,-0.296417 -0.0061,0.762518 -0.361328,0.7148438 C 12.702892,6.8467485 13.46707,5.3641443 13.10348,6.1113219 13.0768,6.5752449 12.55661,6.5879415 12.296839,6.832025 12.154068,6.6956607 11.653228,7.1825549 12.167933,6.906244 c 0.310292,-0.1352656 0.589472,-0.2871613 0.99414,-0.390625 0.04731,-0.016597 0.208584,-0.135811 0.355469,-0.1738281 0.287661,-0.2662052 0.770562,0.078449 0.986328,-0.011719 -0.53823,-0.083853 -0.579548,-0.146905 -0.175781,-0.3457031 -0.260078,0.1049895 -0.839868,0.3696747 -0.431641,-0.1230469 0.280601,-0.4379091 0.979902,-0.2953622 1.4375,-0.4960937 0.467683,-0.029381 -0.374619,0.4106778 -0.347656,0.6210937 -0.332092,0.1970992 -0.494278,0.5130509 -0.699219,0.7792969 -0.118934,0.2288137 -0.438739,0.38777 -0.53125,0.6621094 -0.231692,0.5225269 -0.846043,0.079963 -1.269531,0.052734 -0.330279,-0.1270041 -0.625051,-0.085112 -0.11914,0.015625 0.337667,0.1750208 1.100567,0.1381983 1.224609,0.3417968 -0.181266,0.2208465 -0.871282,0.4380463 -0.427735,0.5273438 -0.36701,0.3407936 -0.48807,0.5524341 -0.732421,0.8554687 0.03088,0.2657777 -0.564567,0.1658932 -0.25586,0.4511719 -0.334684,0.2489066 -0.441905,0.3535866 -0.748047,0.5234366 0.214793,0.219134 -0.248133,0.444132 -0.408203,0.515626 0.07512,0.278209 -0.426992,0.151887 -0.242187,0.4375 -0.242486,0.154659 -0.64877,0.407001 -0.675782,0.507812 -0.4088295,-0.07521 -0.08158,0.449546 -0.5312495,0.398438 -0.294983,-0.04601 -0.4661391,0.311868 -0.6523437,0.269531 0.019406,0.110792 -0.020463,0.168508 -0.078125,0.21289 -0.00291,0.02598 -0.00704,0.05195 -0.00977,0.07813 0.1162524,-0.07719 0.2074583,-0.169989 0.2011719,-0.292968 0.241116,0.08021 0.3162357,-0.196083 0.5605469,-0.183594 0.2255533,-0.09783 0.4145894,-0.156123 0.3808593,-0.402344 0.3800541,-0.0326 0.5622331,-0.424633 0.9414061,-0.59375 -0.390963,-0.244033 0.450599,-0.05347 0.138672,-0.371094 0.346535,-0.04916 0.527758,-0.457247 0.552735,-0.599609 0.287279,-0.0048 0.170972,-0.182426 0.404297,-0.2480465 C 12.092946,9.7799807 12.37983,9.7156448 12.1875,9.5195312 12.518099,9.48977 12.490442,9.1006516 12.791016,8.984375 12.62631,8.7936585 13.11574,8.7280572 13.140625,8.4765625 13.470847,8.359511 12.972466,8.1417908 13.412109,8.0410156 13.864895,7.7960279 13.553007,7.5706581 14,7.2832031 13.94518,7.0251758 14.508441,6.9210505 14.494141,6.5957031 14.684727,6.2581119 15.054596,6.0751865 15.263672,5.7402344 15.37611,5.6035403 15.738807,5.3183656 15.630859,5.2617192 Z m -9.115234,0.033203 c -0.2178261,0.1341961 -0.092223,0.2926057 0,0 z m 2.0996094,0.28125 C 8.4188007,5.9016013 7.9890253,6.504739 8.015625,6.609375 8.2314189,6.2852994 8.4232396,5.9368525 8.6289062,5.5996094 c -0.00116,-0.00142 -0.00283,-0.00243 -0.00391,-0.00391 -0.00331,-0.00454 -0.00631,-0.014378 -0.00977,-0.019531 z m 3.0800776,0.6035156 c -0.0033,0.00253 -0.0066,0.00523 -0.0098,0.00781 -0.0056,0.00455 -0.01028,0.01054 -0.01563,0.015625 -0.0066,0.026258 -0.0097,0.049556 -0.01563,0.0625 0.0138,-0.028692 0.02719,-0.057247 0.04101,-0.085937 z m -0.0957,0.099609 c -0.0581,0.1371595 -0.100061,0.2532086 -0.08789,0.2871093 0.0421,-0.09558 0.08914,-0.190115 0.134765,-0.2851562 -0.01545,0.00159 -0.03133,-0.00268 -0.04687,-0.00195 z m -3.6874996,0.484375 c -0.1084981,0.049037 0.031775,0.034954 0,0 z m -0.052734,0.078125 c -0.2325928,0.1912306 -0.012351,0.1435288 0,0 z m 5.7187496,0.3398437 c 8.03e-4,0.1620253 0.27741,-0.011659 0,0 z m -1.505859,0.1875 c -0.09446,0.089798 0.0078,0.015407 0,0 z m -0.810547,1.4042969 c 0.178392,0.1511459 0.992992,0.2447993 1.054687,0.2011719 -0.347519,-0.086023 -0.71137,-0.096018 -1.054687,-0.2011719 z M 12.441406,9 c -0.0655,0.099145 0.225465,0.023394 0,0 z m -2.246094,1.064453 c 0.03763,0.04893 0.525638,0.286082 0.632813,0.449219 -0.761783,-0.5746635 1.096099,0.09653 0.259766,-0.230469 -0.299522,-0.06668 -0.598559,-0.13043 -0.892579,-0.21875 z m -7.8613276,0.595703 c -0.030429,0.0209 0.026274,0.147802 0.064453,0.02734 -0.032886,-0.02975 -0.05431,-0.03431 -0.064453,-0.02734 z m 5.0253906,0.06445 c -9.09e-5,0.0078 1.146e-4,0.01562 0,0.02344 0.079304,0.03389 0.1595304,0.07271 0.2363281,0.0957 0.019021,0.0121 0.053278,0.02937 0.078125,0.04297 -5.268e-4,-0.0059 4.597e-4,-0.01172 0,-0.01758 -0.1049734,-0.04787 -0.2098562,-0.09594 -0.3144531,-0.144532 z m -4.9746094,0.25 c -0.1509012,0.02491 0.038506,0.07703 0,0 z m 8.0781254,0.09766 c 0.01209,0.198827 0.362429,-0.03123 0,0 z M 9.1386719,11.5 c 0.1100113,0.19363 0.9488931,0.418648 0.3183593,0.144531 C 9.3514865,11.595458 9.2455672,11.546157 9.1386719,11.5 Z"
               inkscape:connector-curvature="0" />
            <path
               id="path3223"
               transform="matrix(5.3534029,0,0,5.4086627,-0.65443927,-20.157081)"
               style="opacity:1;fill:#008000;fill-opacity:1;stroke:#008000;stroke-width:0.0675862;stroke-linejoin:round;stroke-miterlimit:4;stroke-dasharray:none;stroke-opacity:1"
               d="m 8.3183594,8.5019531 c -0.00681,0.00412 -0.014689,0.0056 -0.021484,0.00977 -0.039787,0.018136 -0.072161,0.047179 -0.1054688,0.074219 -0.073252,0.00726 -0.1475643,0.00111 -0.21875,0.025391 -0.09784,0.033362 -0.1894102,0.081894 -0.2832031,0.125 -0.069475,0.04081 -0.1556033,0.018799 -0.2304687,0.042969 C 7.3095693,8.8138958 7.1664493,8.8665276 7.0253906,8.9257812 6.9644303,8.9731497 6.9027624,9.01904 6.8417969,9.0664062 6.979023,9.0078017 7.1186395,8.9544508 7.2636719,8.9179688 7.3317116,8.8976861 7.403057,8.8998251 7.4726562,8.890625 7.5786542,8.8529419 7.6759613,8.7957922 7.78125,8.7558594 7.8673859,8.721111 7.9610716,8.7291079 8.0507812,8.7148438 8.1209852,8.690138 8.1827436,8.6445471 8.2480469,8.609375 c 0.015557,-0.00725 0.027103,-0.019819 0.041016,-0.029297 0.008,-0.026307 0.015472,-0.052225 0.023437,-0.066406 -0.00224,0.00269 0.0072,-0.013124 0.00586,-0.011719 z M 8.2988281,8.5625 c 9.729e-4,-0.00475 -0.002,0.00243 -0.00586,0.013672 0.00118,-8.249e-4 0.00274,-0.00112 0.00391,-0.00195 0.00115,-0.00385 0.00117,-0.00788 0.00195,-0.011719 z"
               inkscape:connector-curvature="0" />
            <path
               style="opacity:1;fill:#008000;fill-opacity:1;stroke:#008000;stroke-width:0.36367878;stroke-linejoin:round;stroke-miterlimit:4;stroke-dasharray:none;stroke-opacity:1"
               d="m 54.194584,21.614819 c 0.668277,-0.623659 1.397687,-1.342749 2.364598,-1.400007 0.297022,0.08602 0.845057,-0.270205 0.887649,-0.288572 -0.244505,0.140536 -0.718544,0.41865 -0.823512,0.466275 0.817442,-0.500527 1.628811,-1.139616 2.626045,-1.187305 0.183248,0.0424 0.614861,-0.207825 0.589577,-0.185608 -0.323176,0.164789 -0.632623,0.354848 -0.953346,0.524034 0.406127,-0.353502 0.849992,-0.656298 1.329035,-0.901365 0.448786,-0.340358 1.000043,-0.450108 1.534455,-0.577929 0.534947,-0.05455 1.021568,-0.227267 1.505542,-0.455012 0.18438,-0.07296 0.443914,-0.168677 0.125698,-0.0025 -0.218289,0.127276 -0.74958,0.452022 -0.771457,0.447131 0.378751,-0.223619 0.806007,-0.348174 1.207387,-0.522885 -0.133341,0.219977 -0.518484,0.432335 -0.800522,0.559593 -0.430822,0.175476 -0.867548,0.336628 -1.291704,0.525943 -0.555893,0.149968 -1.139342,0.185887 -1.680692,0.394698 -0.449866,0.163125 0.409392,-0.275406 0.575423,-0.394921 0.0035,9.2e-5 -0.419361,0.310552 -0.57065,0.441165 -0.54993,0.384696 -1.124494,0.842801 -1.820702,0.895838 -0.375205,-0.02797 -1.036964,0.316046 -1.148482,0.36449 0.302423,-0.18125 0.611722,-0.350665 0.91538,-0.529802 -0.663385,0.386941 -1.278958,0.887008 -2.018004,1.122607 -0.200932,0.02216 -0.79819,0.120864 -0.738399,0.08974 0.354222,-0.216256 0.70632,-0.436067 1.064384,-0.645958 -0.460444,0.211522 -0.733835,0.694459 -1.190006,0.888292 -0.305892,0.124024 -0.611777,0.248101 -0.917697,0.372031 z"
               id="path3225"
               inkscape:connector-curvature="0" />
          </g>
        </g>
      </g>
    </g>
  </g>
  <g
     inkscape:groupmode="layer"
     id="layer3"
     inkscape:label="v"
     style="display:inline;opacity:1"
     transform="translate(0,240)">
    <path
       style="display:inline;fill:#008000;fill-opacity:1;stroke:#008000;stroke-width:0.22677167;stroke-linecap:square;stroke-linejoin:miter;stroke-miterlimit:0.1;stroke-dasharray:none;stroke-opacity:1"
       d="m 114.42628,13.499408 c -1.14369,-0.335191 -2.54803,-1.300798 -3.35494,-2.307181 -3.30788,-4.1260549 -5.45311,-14.9033996 -10.16527,-51.069521 -4.668173,-35.828402 -6.696696,-49.345075 -9.507012,-63.347776 -1.790622,-8.92211 -3.199167,-14.38811 -5.068304,-19.66829 -1.428432,-4.035 -2.681385,-6.66812 -4.05967,-8.53115 -1.38881,-1.8773 -2.430258,-2.5111 -5.01158,-3.05009 -4.113186,-0.85888 -7.950659,1.29631 -11.567077,6.49611 -3.029167,4.35538 -5.247342,9.22264 -7.310032,16.04002 -0.573135,1.894 -1.124837,3.52367 -1.226218,3.62142 -0.264562,0.25535 -1.059039,0.11584 -1.136956,-0.19951 -0.280352,-1.13705 1.824016,-9.11442 3.635079,-13.77854 2.619424,-6.7461 5.404024,-10.88869 9.157288,-13.62304 3.019385,-2.19966 5.72259,-2.79676 9.628664,-2.12676 2.137207,0.36599 3.305563,0.7744 4.630623,1.61576 1.946184,1.236 3.901814,3.80872 5.823879,7.66166 5.481553,10.98833 10.453866,30.150807 16.914916,65.187551 0.68646,3.722346 2.27211,12.556154 3.52362,19.630678 4.62039,26.116756 6.30256,35.0064176 6.73142,35.5731636 0.15534,0.205246 0.21912,0.196546 0.40149,-0.058 0.46444,-0.645381 3.1208,-12.6336436 6.84591,-30.8967946 6.80623,-33.368881 10.39313,-48.084386 17.27704,-70.879408 3.92338,-12.99183 7.11838,-22.27408 11.43975,-33.23507 2.70796,-6.86857 4.41264,-10.7767 7.15499,-16.403 6.82688,-14.0065 12.56994,-22.31003 18.63136,-26.93793 2.79827,-2.1365 4.95712,-3.08021 7.47185,-3.26618 1.41604,-0.10479 2.02533,0.0603 2.28686,0.62023 0.22819,0.48823 -0.14826,0.76811 -1.79377,1.34036 -6.15282,2.13656 -11.47587,11.08651 -17.8511,30.01362 -2.68834,7.98139 -4.30998,13.5846 -4.03391,13.93843 0.21884,0.28018 1.4602,0.15609 4.73317,-0.4754 6.40063,-1.23355 12.34308,-3.31742 17.28395,-6.06094 2.66492,-1.47977 6.74599,-4.5442 8.6238,-6.47558 4.88613,-5.02546 8.33112,-11.3763 10.62263,-19.58268 1.70241,-6.09699 2.89847,-13.31431 4.09746,-24.72609 0.99269,-9.44859 1.11484,-11.0457 0.85491,-11.16897 -0.0902,-0.0428 -0.78658,0.33318 -1.5477,0.83567 -4.97808,3.28733 -7.89635,4.648 -14.28331,6.65977 -3.74367,1.17916 -5.56227,1.67347 -12.09274,3.28703 -9.09385,2.24685 -12.25859,3.15702 -16.60219,4.7747 -12.322,4.58908 -18.71538,11.03934 -22.32515,22.52407 -1.14124,3.63133 -1.70559,6.37892 -2.40182,11.69675 -0.69198,5.28723 -0.7885,7.06983 -0.53846,10.00269 0.33965,3.98828 1.90372,7.08826 4.19453,8.31398 0.65468,0.35027 0.76827,0.7551 0.21392,0.76202 -0.18704,0.004 -0.74612,-0.20732 -1.24275,-0.46651 -0.6929,-0.36168 -1.13386,-0.76683 -1.89711,-1.74255 -1.58551,-2.02707 -2.4778,-5.05828 -2.75973,-9.37523 -0.20224,-3.09787 -0.10697,-4.90063 0.50888,-9.62344 1.56992,-12.01879 4.10907,-18.92407 9.06269,-24.61803 3.52319,-4.04978 8.70659,-7.67376 14.66248,-10.25142 3.35777,-1.45325 9.68374,-3.55641 15.62802,-5.19588 12.1995,-3.36465 16.5058,-4.798 20.84416,-6.93784 4.733,-2.33455 8.51858,-5.42773 10.76522,-8.79605 0.62583,-0.93833 2.08332,-3.76293 4.01585,-7.78251 3.2012,-6.6583 3.74809,-7.66098 3.93214,-7.20894 0.0597,0.14566 -0.17597,3.04711 -0.52163,6.44784 -1.10921,10.88993 -1.58961,16.16531 -1.76973,19.42811 -0.0951,1.75141 -0.23672,4.25169 -0.3115,5.55616 -0.26768,4.68364 -1.37478,14.64794 -2.1298,19.17274 -2.61441,15.66917 -8.31329,26.41311 -17.8443,33.64123 -7.4366,5.63975 -16.51148,8.51499 -28.90203,9.15718 -2.79797,0.14499 -3.48556,0.23502 -3.68822,0.48238 -0.14826,0.18128 -2.51938,8.73789 -3.80068,13.7166 -3.1331,12.17483 -3.82223,14.98332 -11.00089,44.834924 -3.04025,12.642551 -7.50596,30.229342 -10.58,41.666019 -0.67962,2.527263 -2.01789,7.540049 -2.97456,11.139553 -6.70399,25.2224058 -9.30514,33.9188082 -11.60374,38.794688 -0.8278,1.756077 -1.26375,2.43363 -2.1886,3.401491 -1.71049,1.790184 -4.22854,2.499329 -6.50574,1.832295 z"
       id="path3134"
       inkscape:connector-curvature="0" />
  </g>
</svg>
